<svg width="15" height="15" viewBox="0 0 15 15" fill="none" xmlns="http://www.w3.org/2000/svg">
<path fill-rule="evenodd" clip-rule="evenodd" d="M7.01538 1.87247C7.94929 1.83649 8.88454 1.86154 9.81518 1.94747C10.2666 1.94179 10.7152 2.02091 11.1374 2.18072C11.72 2.45219 12.1883 2.9204 12.4597 3.50299C12.6191 3.92636 12.6975 4.37593 12.6907 4.82827C12.6907 5.52803 12.7657 5.76128 12.7657 7.62806C12.8017 8.56196 12.7767 9.49722 12.6907 10.4279C12.6964 10.8793 12.6173 11.3278 12.4575 11.7501C12.186 12.3327 11.7178 12.8009 11.1352 13.0724C10.7129 13.2322 10.2644 13.3113 9.81293 13.3056C9.11317 13.3056 8.87991 13.3807 7.01313 13.3807C6.07993 13.4158 5.14543 13.39 4.21559 13.3034C3.76412 13.3091 3.3156 13.23 2.89332 13.0701C2.31123 12.7994 1.84308 12.3323 1.57105 11.7509C1.41124 11.3286 1.33212 10.8801 1.33779 10.4286C1.33779 9.72884 1.26279 9.49559 1.26279 7.62881C1.22681 6.69491 1.25186 5.75965 1.33779 4.82902C1.33212 4.37755 1.41124 3.92902 1.57105 3.50674C1.70677 3.21806 1.89094 2.95475 2.11556 2.72823C2.29794 2.45619 2.57529 2.26202 2.89332 2.18372C3.3156 2.02391 3.76412 1.94479 4.21559 1.95047C5.14623 1.86454 6.08148 1.83949 7.01538 1.87547V1.87247ZM7.01538 0.628199C6.05649 0.593161 5.09635 0.618211 4.14059 0.7032C3.55494 0.702528 2.97412 0.809033 2.42681 1.01746C1.95486 1.17141 1.5277 1.43841 1.18254 1.79522C0.825738 2.14037 0.558732 2.56753 0.404779 3.03949C0.159039 3.57569 0.0510223 4.16475 0.0905242 4.75326C0.00553459 5.70902 -0.0195148 6.66917 0.015523 7.62806C-0.0196403 8.58795 0.00540923 9.5491 0.0905242 10.5059C0.0892591 11.0903 0.194741 11.6701 0.401779 12.2166C0.555732 12.6886 0.822738 13.1157 1.17954 13.4609C1.5247 13.8177 1.95186 14.0847 2.42381 14.2387C2.97037 14.4457 3.55014 14.5512 4.13459 14.5499C5.09134 14.635 6.05249 14.6601 7.01238 14.6249C7.97227 14.6601 8.93342 14.635 9.89018 14.5499C10.4746 14.5512 11.0544 14.4457 11.601 14.2387C12.0703 14.0773 12.4966 13.8111 12.8475 13.4602C13.1984 13.1092 13.4646 12.6829 13.626 12.2136C13.833 11.6671 13.9385 11.0873 13.9372 10.5029C13.9372 9.72509 14.0122 9.49184 14.0122 7.62506C14.0474 6.66517 14.0224 5.70402 13.9372 4.74726C13.9385 4.16281 13.833 3.58304 13.626 3.03649C13.472 2.56453 13.205 2.13737 12.8482 1.79222C12.503 1.43661 12.0761 1.17065 11.6047 1.01746C11.0581 0.809303 10.4781 0.702802 9.89318 0.7032C8.93642 0.618083 7.97527 0.593034 7.01538 0.628199ZM7.01538 4.0505C6.54345 4.0428 6.07478 4.13007 5.63725 4.30713C5.19972 4.48419 4.80226 4.74743 4.4685 5.08118C4.13475 5.41494 3.87152 5.81239 3.69446 6.24993C3.51739 6.68746 3.43012 7.15612 3.43783 7.62806C3.43783 8.33563 3.64765 9.02732 4.04075 9.61564C4.43386 10.204 4.9926 10.6625 5.64631 10.9333C6.30002 11.2041 7.01935 11.2749 7.71333 11.1369C8.40731 10.9988 9.04477 10.6581 9.5451 10.1578C10.0454 9.65744 10.3862 9.01999 10.5242 8.32601C10.6622 7.63203 10.5914 6.9127 10.3206 6.25899C10.0498 5.60528 9.59129 5.04654 9.00297 4.65343C8.41464 4.26032 7.72296 4.0505 7.01538 4.0505ZM7.01538 9.96135C6.70743 9.96694 6.40151 9.91041 6.1159 9.79513C5.83028 9.67986 5.57083 9.50819 5.35304 9.2904C5.13525 9.07261 4.96359 8.81316 4.84831 8.52755C4.73303 8.24193 4.6765 7.93601 4.6821 7.62806C4.6765 7.32011 4.73303 7.01419 4.84831 6.72857C4.96359 6.44296 5.13525 6.18351 5.35304 5.96572C5.57083 5.74793 5.83028 5.57627 6.1159 5.46099C6.40151 5.34571 6.70743 5.28918 7.01538 5.29477C7.32333 5.28918 7.62925 5.34571 7.91487 5.46099C8.20049 5.57627 8.45994 5.74793 8.67773 5.96572C8.89552 6.18351 9.06718 6.44296 9.18246 6.72857C9.29773 7.01419 9.35427 7.32011 9.34867 7.62806C9.35427 7.93601 9.29773 8.24193 9.18246 8.52755C9.06718 8.81316 8.89552 9.07261 8.67773 9.2904C8.45994 9.50819 8.20049 9.67986 7.91487 9.79513C7.62925 9.91041 7.32333 9.96694 7.01538 9.96135ZM10.7489 3.03874C10.5797 3.03874 10.4142 3.08893 10.2735 3.18296C10.1328 3.27699 10.0231 3.41064 9.95832 3.56701C9.89355 3.72338 9.8766 3.89545 9.90962 4.06145C9.94264 4.22745 10.0241 4.37994 10.1438 4.49962C10.2635 4.6193 10.416 4.7008 10.582 4.73382C10.748 4.76684 10.9201 4.74989 11.0764 4.68512C11.2328 4.62035 11.3665 4.51067 11.4605 4.36994C11.5545 4.22921 11.6047 4.06376 11.6047 3.8945C11.6027 3.66814 11.512 3.45161 11.3519 3.29155C11.1918 3.13148 10.9753 3.0407 10.7489 3.03874Z" fill="white"/>
</svg>
