<svg width="15" height="12" viewBox="0 0 15 12" fill="none" xmlns="http://www.w3.org/2000/svg">
<path fill-rule="evenodd" clip-rule="evenodd" d="M4.44887 11.9849C5.52407 11.9947 6.59042 11.79 7.58566 11.3831C8.58089 10.9761 9.48506 10.3749 10.2454 9.61456C11.0057 8.85425 11.6069 7.95008 12.0139 6.95484C12.4208 5.95961 12.6255 4.89326 12.6158 3.81806V3.42881C13.1593 3.01517 13.6321 2.51619 14.016 1.95128C13.4944 2.17805 12.9452 2.33491 12.3825 2.41779C12.9609 2.05455 13.3994 1.50633 13.6268 0.862267C13.0648 1.17509 12.4631 1.41048 11.838 1.56203C11.5749 1.26555 11.2513 1.02887 10.8891 0.867934C10.5268 0.706994 10.1343 0.625526 9.73796 0.629014C8.97852 0.641186 8.25359 0.948289 7.71652 1.48536C7.17944 2.02244 6.87234 2.74737 6.86016 3.50681C6.84153 3.71727 6.86707 3.92931 6.93517 4.12932C5.79072 4.07403 4.67129 3.77482 3.65188 3.25173C2.63247 2.72864 1.73662 1.99374 1.02432 1.09627C0.768293 1.54655 0.634125 2.05582 0.635065 2.57379C0.645331 3.0439 0.762748 3.50546 0.978373 3.92332C1.194 4.34118 1.50214 4.70432 1.87933 4.98508C1.41177 4.97543 0.955278 4.84105 0.557063 4.59583C0.556304 5.26194 0.789501 5.90717 1.21595 6.41888C1.6424 6.93059 2.23501 7.27628 2.89035 7.39562C2.63693 7.46294 2.3742 7.48828 2.11259 7.47062C1.92784 7.48399 1.74234 7.45844 1.56808 7.39562C1.75786 7.97259 2.12129 8.47682 2.60864 8.83931C3.09599 9.2018 3.68345 9.40484 4.29062 9.42065C3.26826 10.2192 2.01028 10.6567 0.713066 10.6649C0.477277 10.6785 0.240868 10.6531 0.0133057 10.5899C1.30035 11.5247 2.85617 12.0161 4.44663 11.9902" fill="white"/>
</svg>
