<svg width="22" height="21" viewBox="0 0 22 21" fill="none" xmlns="http://www.w3.org/2000/svg">
<path d="M10.1251 0.878906H11.879V2.6328H10.1251V0.878906Z" fill="white"/>
<path d="M15.3751 0.878906H17.129V2.6328H15.3751V0.878906Z" fill="white"/>
<path d="M4.87505 0.878906H6.62895V2.6328H4.87505V0.878906Z" fill="white"/>
<path d="M20.6254 2.62836H17.1253V5.2534H15.3753V2.62836H11.8752V5.2534H10.1252V2.62836H6.62515V5.2534H4.87512V2.62836H1.37507C1.143 2.62836 0.920436 2.72055 0.756339 2.88465C0.592242 3.04874 0.500053 3.27131 0.500053 3.50337V19.2536C0.500053 19.4857 0.592242 19.7083 0.756339 19.8724C0.920436 20.0365 1.143 20.1286 1.37507 20.1286H20.6254C20.8574 20.1286 21.08 20.0365 21.2441 19.8724C21.4082 19.7083 21.5004 19.4857 21.5004 19.2536V3.50337C21.5004 3.27131 21.4082 3.04874 21.2441 2.88465C21.08 2.72055 20.8574 2.62836 20.6254 2.62836ZM16.6168 13.8406L15.3753 12.9535V16.6286C15.3753 16.8607 15.2831 17.0832 15.119 17.2473C14.9549 17.4114 14.7323 17.5036 14.5003 17.5036H12.3127V14.0035C12.3127 13.7715 12.2205 13.5489 12.0565 13.3848C11.8924 13.2207 11.6698 13.1285 11.4377 13.1285H10.5627C10.3306 13.1285 10.1081 13.2207 9.94398 13.3848C9.77989 13.5489 9.6877 13.7715 9.6877 14.0035V17.5036H7.50016C7.26809 17.5036 7.04553 17.4114 6.88143 17.2473C6.71734 17.0832 6.62515 16.8607 6.62515 16.6286V12.9535L5.38372 13.8406L4.36652 12.4165L10.4916 8.04142C10.6406 7.93694 10.8182 7.88089 11.0002 7.88089C11.1822 7.88089 11.3598 7.93694 11.5088 8.04142L17.6339 12.4165L16.6168 13.8406Z" fill="white"/>
</svg>
