<svg width="47" height="47" viewBox="0 0 47 47" fill="none" xmlns="http://www.w3.org/2000/svg">
<path d="M23.4969 46.6294C18.2205 46.6248 13.1078 44.7968 9.02468 41.455C4.94151 38.1131 2.13878 33.4627 1.0911 28.2914C0.0434173 23.1201 0.815172 17.7456 3.27568 13.078C5.73618 8.4104 9.73422 4.73661 14.5928 2.67873C20.1639 0.416683 26.4015 0.438464 31.9567 2.73937C37.5119 5.04027 41.9381 9.43535 44.2782 14.9741C46.6183 20.5129 46.6842 26.7503 44.4615 32.3372C42.2389 37.9242 37.9064 42.4117 32.4011 44.8294C29.5844 46.0224 26.5558 46.6346 23.4969 46.6294V46.6294ZM14.3295 16.4452L10.5667 20.1203L23.1969 32.4542L35.8279 20.1165L32.065 16.4415L23.1969 25.1041L14.3295 16.4452Z" fill="white"/>
</svg>
