<svg width="93" height="27" viewBox="0 0 93 27" fill="none" xmlns="http://www.w3.org/2000/svg">
<path d="M21.2109 25.9667C21.2109 25.9008 21.2175 25.8228 21.2307 25.7327L21.6426 25.6602C21.6932 25.6492 21.7536 25.6316 21.8239 25.6074L21.8668 24.7834C21.858 24.4868 21.8536 24.2649 21.8536 24.1177L21.8569 24.0386C21.8635 23.9485 21.8668 23.7222 21.8668 23.3596L21.8602 23.264L21.8668 22.9872L21.8635 22.7004V22.5587C21.8635 22.4313 21.8536 22.2819 21.8338 22.1105C21.8316 22.0951 21.8228 22.0687 21.8074 22.0314C21.7899 22.0248 21.7701 22.0204 21.7481 22.0182C21.7283 22.016 21.7075 22.0127 21.6855 22.0083C21.5998 21.9929 21.5086 21.9819 21.4119 21.9753L21.3625 21.9622C21.3032 21.9556 21.2581 21.9468 21.2274 21.9358C21.2208 21.8721 21.2175 21.8314 21.2175 21.8138C21.2175 21.7875 21.2241 21.7512 21.2372 21.7051C21.2812 21.6963 21.3427 21.6919 21.4218 21.6919C21.5009 21.6919 21.5558 21.6908 21.5866 21.6886C21.8547 21.7172 22.0535 21.7325 22.1832 21.7347C22.2425 21.7347 22.3018 21.7369 22.3611 21.7413C22.4227 21.7435 22.4765 21.7446 22.5226 21.7446C22.5952 21.7446 22.772 21.7336 23.0533 21.7117C23.0994 21.7007 23.15 21.6952 23.2049 21.6952C23.2862 21.6952 23.3543 21.6996 23.4092 21.7084C23.4114 21.7545 23.4125 21.7875 23.4125 21.8072C23.4125 21.8424 23.4081 21.8853 23.3994 21.9358L22.8193 22.0281C22.7709 22.05 22.7468 22.0819 22.7468 22.1237L22.7567 22.2456L22.7599 22.2983L22.7567 22.4434L22.7501 22.5554V22.5818C22.7523 22.606 22.7534 22.6268 22.7534 22.6444L22.7501 23.063C22.7523 23.1025 22.7534 23.1322 22.7534 23.152C22.7534 23.163 22.7512 23.1981 22.7468 23.2574C22.7446 23.2926 22.7435 23.3289 22.7435 23.3662C22.7435 23.3992 22.7468 23.4772 22.7534 23.6002C22.8149 23.6112 22.8665 23.6178 22.9083 23.62L23.3961 23.6299H23.6334L24.2266 23.6332L24.8034 23.6167C24.8781 23.6167 24.9572 23.609 25.0407 23.5936C25.0451 23.5189 25.0484 23.3354 25.0506 23.0432L25.0572 22.8949L25.0374 22.3346L25.0143 22.1039C25.0078 22.0885 24.9924 22.0742 24.9682 22.061C24.8913 22.0171 24.7375 21.9676 24.5068 21.9127C24.465 21.9039 24.4255 21.8929 24.3881 21.8798C24.3925 21.8029 24.4013 21.7402 24.4145 21.6919C24.4628 21.6897 24.4925 21.6886 24.5035 21.6886L24.8232 21.6919C25.0275 21.7183 25.2352 21.7314 25.4461 21.7314C25.4944 21.7314 25.5329 21.7303 25.5615 21.7281L25.9899 21.715C26.0295 21.7128 26.0679 21.7106 26.1053 21.7084C26.1844 21.6908 26.2657 21.682 26.3492 21.682C26.4129 21.682 26.4898 21.6853 26.5799 21.6919C26.5777 21.7776 26.5722 21.8556 26.5634 21.9259C26.3613 21.9676 26.2283 21.9984 26.1646 22.0182C26.1031 22.0358 26.0405 22.061 25.9767 22.094L25.957 22.1599V22.2159L25.9603 22.3016L25.957 22.3445C25.9526 22.3906 25.9504 22.4258 25.9504 22.4499V22.5323C25.9526 22.6312 25.9537 22.6862 25.9537 22.6971V23.1157L25.957 23.4321L25.9504 23.8507C25.9482 23.9474 25.9515 24.1451 25.9603 24.444V24.912L25.9669 25.3009C25.9669 25.3734 25.9647 25.4613 25.9603 25.5646C26.0064 25.5778 26.0493 25.5887 26.0888 25.5975C26.2953 25.6415 26.4514 25.6865 26.5568 25.7327L26.5667 25.9634C26.4788 25.9656 26.4272 25.9667 26.4118 25.9667C26.3063 25.9667 26.1855 25.9601 26.0493 25.9469C25.8691 25.9271 25.579 25.9172 25.1791 25.9172C24.999 25.9172 24.7661 25.9315 24.4804 25.9601C24.4496 25.9601 24.4123 25.9535 24.3683 25.9403C24.3705 25.8392 24.376 25.7678 24.3848 25.7261L24.6386 25.6667L24.9056 25.6239C24.9319 25.6173 24.966 25.6074 25.0078 25.5942C25.0319 25.4163 25.0451 25.1207 25.0473 24.7076L25.0506 24.4275C25.0374 24.311 25.0308 24.1715 25.0308 24.0089C24.9495 24.0023 24.8616 23.9979 24.7672 23.9957L23.2379 23.9792L23.2082 23.976L23.1851 23.9727C23.1697 23.9727 23.1522 23.9738 23.1324 23.976C23.0753 23.9781 23.0269 23.9792 22.9874 23.9792H22.8951C22.8533 23.9792 22.8061 23.9869 22.7534 24.0023L22.7402 24.2495V24.2924C22.7446 24.3517 22.7468 24.3901 22.7468 24.4077V25.4294C22.7468 25.4866 22.7501 25.5448 22.7567 25.6041L22.7896 25.6239L23.2741 25.6997C23.2983 25.7085 23.317 25.714 23.3301 25.7162C23.3587 25.7228 23.3829 25.7327 23.4026 25.7458C23.4092 25.7964 23.4125 25.8304 23.4125 25.848C23.4125 25.8766 23.4081 25.9161 23.3994 25.9667C23.3203 25.9689 23.2532 25.97 23.1983 25.97C23.15 25.97 23.1049 25.9689 23.0632 25.9667C23.0434 25.9667 23.0247 25.9656 23.0071 25.9634L22.5424 25.9436C22.4326 25.9326 22.2787 25.9271 22.081 25.9271L22.0118 25.9304C21.9195 25.9348 21.8657 25.9381 21.8503 25.9403C21.7141 25.9579 21.5009 25.9667 21.2109 25.9667Z" fill="white"/>
<path d="M31.1869 23.7914C31.1869 23.5189 31.2396 23.2454 31.3451 22.9707C31.422 22.7729 31.5297 22.5917 31.6681 22.4269C31.8065 22.2621 31.9801 22.116 32.1889 21.9885C32.3976 21.8589 32.6107 21.7666 32.8283 21.7117C33.0458 21.6545 33.2886 21.626 33.5567 21.626C34.0137 21.626 34.4103 21.7117 34.7465 21.8831C35.0827 22.0544 35.3474 22.2863 35.5408 22.5785C35.7913 22.9586 35.9165 23.3574 35.9165 23.7749C35.9165 24.3967 35.7045 24.9296 35.2804 25.3734C34.8585 25.8173 34.2708 26.0392 33.5171 26.0392C33.3303 26.0392 33.1557 26.0271 32.9931 26.0029C32.87 25.9853 32.7623 25.9612 32.6701 25.9304C32.5031 25.8755 32.4097 25.8436 32.3899 25.8348C32.1504 25.6986 31.9581 25.5591 31.8131 25.4163C31.6681 25.2734 31.5451 25.1119 31.444 24.9318C31.3891 24.8307 31.3264 24.6483 31.2561 24.3846C31.21 24.2155 31.1869 24.0177 31.1869 23.7914ZM33.4314 21.9523C33.2402 21.9523 33.0711 21.9973 32.9238 22.0874C32.7766 22.1753 32.6657 22.2731 32.591 22.3807C32.4657 22.5631 32.3767 22.7631 32.324 22.9806C32.2713 23.1959 32.2449 23.4585 32.2449 23.7683C32.2449 23.9573 32.2526 24.0924 32.268 24.1737C32.2724 24.2001 32.2789 24.2451 32.2877 24.3088C32.3075 24.4714 32.3306 24.5901 32.3569 24.6648C32.4514 24.9438 32.5184 25.1163 32.558 25.1822C32.6239 25.2943 32.7217 25.4053 32.8513 25.5151C32.9172 25.5723 33.0128 25.625 33.1381 25.6733C33.2633 25.7195 33.3886 25.7426 33.5138 25.7426C33.7511 25.7426 33.9708 25.6876 34.173 25.5778C34.3773 25.4657 34.541 25.2767 34.6641 25.0109C34.7871 24.745 34.8486 24.3989 34.8486 23.9727C34.8486 23.7969 34.8366 23.5585 34.8124 23.2574L34.7959 23.1948C34.7893 23.1772 34.7783 23.1322 34.763 23.0597C34.6817 22.6993 34.5256 22.4247 34.2949 22.2357C34.0664 22.0468 33.7786 21.9523 33.4314 21.9523Z" fill="white"/>
<path d="M40.507 21.5271H40.7114C40.7268 21.5513 40.7378 21.5688 40.7444 21.5798C40.8059 21.6853 40.8531 21.7545 40.8861 21.7875C40.9146 21.7963 41.0652 21.8007 41.3376 21.8007C41.5068 21.8007 41.6573 21.7996 41.7892 21.7974L41.8551 21.7875L42.2539 21.7842L42.9987 21.7908H44.0172L44.2116 21.7611C44.2402 21.7413 44.271 21.6886 44.3039 21.6029C44.3127 21.5831 44.3248 21.5557 44.3402 21.5205L44.4852 21.5172C44.5072 21.5172 44.5401 21.5183 44.5841 21.5205C44.5863 21.6721 44.5874 21.9006 44.5874 22.2061L44.5907 22.4994L44.5874 22.6675C44.5874 22.7246 44.583 22.774 44.5742 22.8158C44.4841 22.8444 44.405 22.8619 44.3369 22.8685C44.2798 22.7828 44.2171 22.6587 44.149 22.4961C44.0831 22.3335 44.0413 22.2434 44.0238 22.2258C43.9974 22.1973 43.9666 22.1786 43.9315 22.1698C43.8787 22.1588 43.6458 22.1533 43.2328 22.1533C43.1712 22.1533 43.0943 22.1577 43.002 22.1665C42.9889 22.2522 42.9823 22.3225 42.9823 22.3774L42.9856 22.8191V23.7881L42.9987 24.8329L42.9954 25.2614C42.9954 25.413 43.0086 25.5272 43.035 25.6041C43.0702 25.6195 43.135 25.6338 43.2295 25.647C43.247 25.6492 43.3283 25.6667 43.4734 25.6997C43.5393 25.7151 43.5975 25.7327 43.648 25.7524C43.659 25.8315 43.6645 25.8799 43.6645 25.8975C43.6645 25.9172 43.6612 25.9458 43.6546 25.9832C43.6063 25.9853 43.5667 25.9864 43.536 25.9864C43.3097 25.9864 43.1174 25.9788 42.9592 25.9634C42.801 25.9458 42.5142 25.937 42.099 25.937C42.033 25.937 41.8397 25.9502 41.5189 25.9766C41.3936 25.9853 41.3123 25.9897 41.275 25.9897C41.2728 25.9568 41.2706 25.9315 41.2684 25.9139L41.2651 25.8381V25.8118C41.3134 25.748 41.4046 25.7008 41.5387 25.67C41.7672 25.6151 41.9254 25.5657 42.0133 25.5217C42.0352 25.48 42.0484 25.425 42.0528 25.3569C42.0682 25.0933 42.0759 24.6736 42.0759 24.0979L42.0594 22.852C42.0594 22.5093 42.0528 22.3016 42.0396 22.2291C42.0352 22.2093 42.0276 22.1951 42.0166 22.1863C42.0056 22.1753 41.9902 22.1687 41.9704 22.1665C41.9023 22.1577 41.6804 22.1533 41.3047 22.1533C41.0981 22.1533 40.9597 22.1731 40.8894 22.2126C40.7949 22.2676 40.6532 22.417 40.4642 22.6609C40.4093 22.7312 40.3686 22.7664 40.3423 22.7664C40.2412 22.7136 40.1764 22.6708 40.1478 22.6378C40.2159 22.495 40.3104 22.2093 40.4312 21.7809C40.4664 21.6556 40.4917 21.571 40.507 21.5271Z" fill="white"/>
<path d="M48.9801 21.7117C49.1054 21.7183 49.2141 21.7281 49.3064 21.7413C49.48 21.7655 49.6811 21.7776 49.9096 21.7776C49.9887 21.7776 50.1919 21.771 50.5193 21.7578C51.0093 21.738 51.4521 21.7281 51.8476 21.7281L52.4441 21.7216C52.5782 21.7216 52.7759 21.738 53.0374 21.771C53.0769 21.8149 53.0967 21.8743 53.0967 21.949V22.6279L53.1033 22.7631C53.1033 22.7762 53.1022 22.796 53.1 22.8224L52.9649 22.829C52.9473 22.829 52.91 22.8268 52.8528 22.8224C52.833 22.7784 52.8067 22.7136 52.7737 22.6279L52.6419 22.3939C52.5913 22.295 52.521 22.194 52.4309 22.0907C52.376 22.0753 52.3057 22.0665 52.22 22.0643C52.198 22.0621 52.131 22.0566 52.019 22.0478C51.8146 22.0303 51.5949 22.0215 51.3598 22.0215C51.0917 22.0215 50.8522 22.0259 50.6413 22.0347C50.6347 22.0896 50.6314 22.306 50.6314 22.684L50.638 23.2377V23.653C50.6929 23.6595 50.7402 23.6628 50.7797 23.6628C51.173 23.6628 51.4532 23.6551 51.6202 23.6398C51.7871 23.6244 51.8904 23.6035 51.93 23.5771C51.9695 23.5486 52.0047 23.5002 52.0354 23.4321C52.0552 23.3838 52.0937 23.2223 52.1508 22.9476L52.1936 22.9443L52.3848 22.9476C52.3936 23.1432 52.398 23.2915 52.398 23.3926C52.398 23.6233 52.3958 23.7716 52.3914 23.8375C52.3892 23.9034 52.3881 23.9551 52.3881 23.9924C52.3881 24.0518 52.3914 24.1473 52.398 24.2792C52.4046 24.4088 52.4079 24.5055 52.4079 24.5692V24.6417H52.1739C52.1651 24.6066 52.1486 24.5341 52.1244 24.4242C52.0805 24.2198 52.0409 24.0924 52.0058 24.0419C51.9794 24.0023 51.9355 23.9727 51.8739 23.9529C51.83 23.9375 51.6674 23.9298 51.3861 23.9298C51.0544 23.9298 50.805 23.9386 50.638 23.9562C50.6358 24.0133 50.6347 24.0507 50.6347 24.0682C50.6347 24.3297 50.6391 24.5472 50.6479 24.7208L50.6413 25.4327C50.6413 25.5162 50.6709 25.5734 50.7303 25.6041C50.8204 25.6503 51.0961 25.6733 51.5575 25.6733C51.863 25.6733 52.1222 25.6503 52.3354 25.6041C52.4826 25.5712 52.6122 25.4976 52.7243 25.3833C52.8737 25.2361 52.9978 25.0295 53.0967 24.7637C53.1648 24.7571 53.2209 24.7538 53.2648 24.7538C53.289 24.7538 53.3252 24.7549 53.3736 24.7571C53.367 24.812 53.3615 24.8582 53.3571 24.8955L53.3373 24.9944L53.2154 25.6173L53.156 25.993C53.0132 25.9996 52.9001 26.0029 52.8166 26.0029C52.6935 26.0029 52.365 25.9919 51.8311 25.97C51.4554 25.9546 51.0027 25.9469 50.4732 25.9469C50.2095 25.9469 49.8854 25.9579 49.5009 25.9799H49.3625L48.9637 25.993V25.7656C49.0054 25.7546 49.0889 25.7426 49.2141 25.7294C49.4427 25.703 49.6009 25.6678 49.6888 25.6239C49.7129 25.5602 49.725 25.48 49.725 25.3833C49.725 25.3459 49.7239 25.2822 49.7217 25.1921L49.725 25.09L49.7151 23.8474L49.7184 23.475L49.7019 22.9476L49.7052 22.5752L49.6756 22.1665C49.6756 22.1555 49.6734 22.1335 49.669 22.1006C49.647 22.0764 49.6141 22.061 49.5701 22.0544C49.5459 22.05 49.513 22.0435 49.4712 22.0347C49.346 22.0083 49.2251 21.9929 49.1087 21.9885C49.0669 21.9863 49.0186 21.9819 48.9637 21.9753L48.9801 21.7117Z" fill="white"/>
<path d="M57.8323 25.7063C57.9004 25.6865 57.996 25.6678 58.119 25.6503C58.2443 25.6305 58.3179 25.6206 58.3398 25.6206C58.4255 25.6184 58.4827 25.6041 58.5112 25.5778C58.5244 25.525 58.531 25.4811 58.531 25.4459L58.5244 25.024L58.5442 24.5956V24.322L58.5475 23.999L58.5409 23.6562L58.5541 22.9213L58.5574 22.5884V22.5422C58.542 22.3115 58.5266 22.1852 58.5112 22.1632C58.498 22.139 58.4354 22.1094 58.3234 22.0742C58.3124 22.0698 58.2706 22.0533 58.1981 22.0248C58.1432 22.0028 58.0937 21.9874 58.0498 21.9786C57.9729 21.9589 57.9191 21.9358 57.8883 21.9094C57.8839 21.8523 57.8817 21.8083 57.8817 21.7776C57.8817 21.76 57.8828 21.7336 57.885 21.6985C57.9048 21.6875 57.9256 21.682 57.9476 21.682C58.0004 21.682 58.1915 21.6908 58.5211 21.7084L58.9924 21.7051L59.3418 21.7117C59.4934 21.7117 59.6879 21.7018 59.9252 21.682C59.9955 21.6754 60.0361 21.6721 60.0471 21.6721C60.0801 21.6721 60.1031 21.6809 60.1163 21.6985C60.1339 21.7227 60.1427 21.7666 60.1427 21.8303C60.1427 21.8809 60.1306 21.9193 60.1064 21.9457C60.0933 21.9611 60.0449 21.9742 59.9614 21.9852L59.5527 22.0808C59.5417 22.0852 59.5231 22.094 59.4967 22.1072C59.4879 22.1226 59.4813 22.1357 59.4769 22.1467L59.4736 22.239L59.4637 22.4467V22.506L59.467 22.5422C59.467 22.5532 59.4637 22.6136 59.4571 22.7235C59.4549 22.7521 59.4538 22.7806 59.4538 22.8092C59.4538 22.8444 59.456 22.9037 59.4604 22.9872C59.467 23.119 59.4703 23.2344 59.4703 23.3333C59.4703 23.4475 59.467 23.5782 59.4604 23.7255C59.4582 23.7804 59.4571 23.8518 59.4571 23.9397L59.444 25.502C59.444 25.5679 59.4549 25.6107 59.4769 25.6305L59.79 25.6437L59.9845 25.6404L60.1921 25.647C60.5459 25.647 60.8238 25.6063 61.026 25.525C61.1776 25.4635 61.2765 25.402 61.3226 25.3405C61.3973 25.2745 61.4578 25.2031 61.5039 25.1262C61.5522 25.0493 61.6061 24.9219 61.6654 24.7439H61.7709C61.8236 24.7439 61.8829 24.7483 61.9488 24.7571V24.8494C61.9488 25.0076 61.9291 25.2844 61.8895 25.6799C61.8741 25.8381 61.8588 25.9348 61.8434 25.97C61.7928 25.9788 61.761 25.9832 61.7478 25.9832H61.6258L61.4545 25.9864C61.4347 25.9864 61.3039 25.9777 61.0622 25.9601C61.0183 25.9579 60.8085 25.9502 60.4327 25.937C60.057 25.9238 59.689 25.9172 59.3286 25.9172L58.6562 25.937C58.397 25.9436 58.1542 25.9557 57.9278 25.9733H57.8784C57.8652 25.9733 57.8443 25.9722 57.8158 25.97C57.8114 25.9458 57.8092 25.9249 57.8092 25.9073C57.8092 25.8151 57.8169 25.748 57.8323 25.7063Z" fill="white"/>
<path d="M68.8069 21.8072C68.8289 21.882 68.8487 21.9951 68.8663 22.1467C68.8926 22.373 68.9058 22.5488 68.9058 22.6741C68.9058 22.7136 68.9014 22.7565 68.8926 22.8026L68.8597 22.8125L68.6224 22.796L68.5828 22.7894C68.4861 22.4994 68.3895 22.3027 68.2928 22.1995C68.1258 22.0237 67.9291 21.9358 67.7028 21.9358C67.4875 21.9358 67.3161 21.9929 67.1887 22.1072C67.0634 22.2192 67.0008 22.3588 67.0008 22.5258C67.0008 22.6664 67.0634 22.8015 67.1887 22.9312C67.3117 23.0608 67.5732 23.1849 67.9731 23.3036C68.1071 23.3431 68.2686 23.4069 68.4576 23.4947C68.6487 23.5826 68.7938 23.6782 68.8926 23.7815C69.0245 23.9177 69.1146 24.0496 69.1629 24.177C69.2134 24.3022 69.2387 24.4593 69.2387 24.6483C69.2387 24.8549 69.2003 25.0581 69.1234 25.2581C69.0816 25.3635 69.0146 25.4635 68.9223 25.558C68.8564 25.6239 68.7542 25.7019 68.6158 25.792C68.4774 25.8799 68.3334 25.9436 68.184 25.9832C68.0368 26.0227 67.8467 26.0425 67.6138 26.0425C67.46 26.0425 67.2766 26.0205 67.0634 25.9766L66.6679 25.8612C66.558 25.8304 66.4888 25.803 66.4603 25.7788C66.4493 25.77 66.4394 25.7491 66.4306 25.7162V25.6799C66.4306 25.6558 66.4251 25.5052 66.4141 25.2284C66.4097 25.0856 66.4075 24.9845 66.4075 24.9252V24.7999L66.7108 24.7933C66.8162 25.0372 66.8843 25.1844 66.9151 25.235C66.9832 25.347 67.0579 25.4382 67.1392 25.5085C67.2227 25.5767 67.3216 25.6316 67.4359 25.6733C67.5501 25.7129 67.6743 25.7327 67.8083 25.7327C67.9269 25.7327 68.0577 25.7074 68.2005 25.6569C68.3433 25.6063 68.4576 25.5239 68.5433 25.4097C68.6312 25.2932 68.6751 25.1691 68.6751 25.0372C68.6751 24.8746 68.5993 24.7241 68.4477 24.5857C68.3554 24.5 68.1071 24.3857 67.7028 24.2429C67.2985 24.1001 67.0184 23.9727 66.8624 23.8606C66.7064 23.7485 66.5833 23.5991 66.4932 23.4124C66.4031 23.2234 66.3581 23.0421 66.3581 22.8685C66.3581 22.5192 66.4833 22.2225 66.7338 21.9786C66.9843 21.7347 67.3535 21.6128 67.8412 21.6128C67.9467 21.6128 68.1027 21.6315 68.3093 21.6688C68.4345 21.6908 68.6004 21.7369 68.8069 21.8072Z" fill="white"/>
<path d="M0.421082 12.1848C0.610291 12.1299 0.875793 12.078 1.21759 12.0292C1.56549 11.9742 1.76996 11.9468 1.83099 11.9468C2.06903 11.9407 2.22772 11.901 2.30707 11.8278C2.34369 11.6813 2.362 11.5592 2.362 11.4615L2.34369 10.2897L2.39862 9.09949V8.3396L2.40778 7.44238L2.38947 6.49023L2.42609 4.44861L2.43524 3.52393V3.39575C2.39252 2.75488 2.34979 2.40393 2.30707 2.3429C2.27045 2.27576 2.0965 2.19336 1.78522 2.0957C1.7547 2.0835 1.63873 2.03772 1.43732 1.95837C1.28473 1.89734 1.1474 1.85461 1.02533 1.8302C0.811706 1.77527 0.66217 1.71118 0.576721 1.63794C0.564514 1.47925 0.558411 1.35718 0.558411 1.27173C0.558411 1.2229 0.561462 1.14966 0.567566 1.052C0.622498 1.02148 0.680481 1.00623 0.741516 1.00623C0.888 1.00623 1.41901 1.03064 2.33453 1.07947L3.64374 1.07031L4.6142 1.08862C5.03534 1.08862 5.5755 1.06116 6.23468 1.00623C6.42999 0.987915 6.54291 0.97876 6.57342 0.97876C6.66498 0.97876 6.72906 1.00317 6.76569 1.052C6.81451 1.11914 6.83893 1.24121 6.83893 1.41821C6.83893 1.55859 6.80536 1.66541 6.73822 1.73865C6.7016 1.78137 6.56732 1.81799 6.33539 1.84851L5.20013 2.11401C5.16962 2.12622 5.11774 2.15063 5.04449 2.18726C5.02008 2.22998 5.00177 2.2666 4.98956 2.29712L4.98041 2.55347L4.95294 3.13025V3.29504L4.9621 3.39575C4.9621 3.42627 4.95294 3.59412 4.93463 3.89929C4.92853 3.97864 4.92548 4.05798 4.92548 4.13733C4.92548 4.23499 4.93158 4.39978 4.94379 4.63171C4.9621 4.99792 4.97125 5.31836 4.97125 5.59302C4.97125 5.9104 4.9621 6.27356 4.94379 6.68249C4.93768 6.83508 4.93463 7.03345 4.93463 7.27759L4.89801 11.6172C4.89801 11.8003 4.92853 11.9193 4.98956 11.9742L5.85931 12.0109L6.39947 12.0017L6.97626 12.02C7.95892 12.02 8.73102 11.9071 9.29254 11.6813C9.71368 11.5104 9.98834 11.3395 10.1165 11.1686C10.324 10.9855 10.4919 10.7871 10.6201 10.5735C10.7543 10.3599 10.9039 10.0059 11.0687 9.51147H11.3616C11.5081 9.51147 11.6729 9.52368 11.856 9.54809V9.80444C11.856 10.2439 11.8011 11.0129 11.6912 12.1116C11.6485 12.551 11.6058 12.8196 11.563 12.9172C11.4227 12.9416 11.3342 12.9539 11.2975 12.9539H10.9588L10.4827 12.963C10.4278 12.963 10.0646 12.9386 9.39325 12.8898C9.27118 12.8837 8.68829 12.8623 7.64459 12.8257C6.60089 12.7891 5.57855 12.7708 4.57758 12.7708L2.7099 12.8257C1.98968 12.844 1.31525 12.8776 0.686584 12.9264H0.549255C0.512634 12.9264 0.454651 12.9233 0.375305 12.9172C0.363098 12.8501 0.356995 12.7921 0.356995 12.7433C0.356995 12.4869 0.378357 12.3008 0.421082 12.1848Z" fill="white"/>
<path d="M15.0897 1.85767L15.0622 1.1344C15.1721 1.1283 15.285 1.12524 15.4009 1.12524C15.7061 1.12524 16.0265 1.1344 16.3622 1.15271C17.1679 1.19543 17.6409 1.2168 17.7813 1.2168C18.2696 1.2168 18.7457 1.20764 19.2095 1.18933C19.6795 1.16492 20.0945 1.14966 20.4546 1.14355C20.8209 1.13745 21.0681 1.13135 21.1962 1.12524L21.1871 1.23511L21.2054 1.77527V1.84851C20.8636 1.89734 20.5096 1.92175 20.1434 1.92175C19.8016 1.92175 19.5757 1.98889 19.4659 2.12317C19.3926 2.20862 19.356 2.57178 19.356 3.21265C19.356 3.40796 19.3591 3.56665 19.3652 3.68872L19.3743 4.01831L19.356 4.87891L19.4109 5.61133L19.3743 7.19519L19.4933 9.49316C19.5239 10.1584 19.6703 10.7108 19.9328 11.1503C20.1281 11.4738 20.4028 11.727 20.7568 11.9102C21.2695 12.1665 21.773 12.2947 22.2674 12.2947C22.8533 12.2947 23.3996 12.2184 23.9062 12.0658C24.2053 11.9803 24.486 11.843 24.7485 11.6538C25.017 11.4585 25.2032 11.2815 25.3069 11.1228C25.5267 10.7871 25.6793 10.4728 25.7647 10.1798C25.8807 9.77698 25.9387 9.15137 25.9387 8.30298C25.9387 6.82593 25.8593 5.16272 25.7006 3.31335L25.664 2.82812C25.6457 2.46802 25.5786 2.22693 25.4626 2.10486C25.2673 1.91565 25.0475 1.82104 24.8034 1.82104L23.9428 1.83936L23.8238 1.81189L23.8421 1.11609H24.5654L26.314 1.18933C26.9 1.18933 27.4584 1.16187 27.9894 1.10693L28.1451 1.12524C28.1817 1.32666 28.2 1.46704 28.2 1.54639C28.2 1.61353 28.1878 1.69592 28.1634 1.79358C27.9376 1.86072 27.6995 1.90039 27.4493 1.9126C27.0403 1.96753 26.8145 2.01331 26.7718 2.04993C26.6863 2.12317 26.6436 2.23608 26.6436 2.38867C26.6436 2.49854 26.6528 2.65723 26.6711 2.86475C26.6894 3.01733 26.6985 3.28284 26.6985 3.66125C26.6985 3.87488 26.6985 4.04272 26.6985 4.16479C26.7046 4.28686 26.7108 4.41199 26.7169 4.54016C26.7352 4.97961 26.7504 5.42517 26.7626 5.87683L26.8542 7.73535C26.8542 8.98047 26.8115 9.8136 26.726 10.2347C26.6406 10.6559 26.5246 10.9885 26.3781 11.2327C26.1523 11.5989 25.8318 11.9376 25.4168 12.2489C25.0018 12.5541 24.483 12.7982 23.8604 12.9813C23.2379 13.1583 22.5115 13.2468 21.6815 13.2468C20.7354 13.2468 19.9236 13.1217 19.2462 12.8715C18.5687 12.6151 18.056 12.2825 17.7081 11.8735C17.3663 11.4585 17.1313 10.9214 17.0031 10.2622C16.9116 9.81055 16.8658 9.16357 16.8658 8.32129L16.8749 3.95422C16.8749 2.92273 16.8261 2.33984 16.7285 2.20557C16.5942 2.01636 16.1761 1.90955 15.4742 1.88513C15.3216 1.88513 15.1934 1.87598 15.0897 1.85767Z" fill="white"/>
<path d="M31.9189 1.08862C32.1386 1.08252 32.3156 1.07947 32.4499 1.07947C32.5964 1.07947 32.7154 1.08252 32.8069 1.08862L33.3013 1.12524L33.5302 1.11609C33.5607 1.11609 33.6706 1.13135 33.8598 1.16187C34.2016 1.2168 34.6929 1.24426 35.3338 1.24426C36.1273 1.24426 36.878 1.19543 37.586 1.09778C37.6837 1.10388 37.7905 1.11304 37.9064 1.12524C37.8942 1.32666 37.8881 1.52808 37.8881 1.72949C37.7966 1.77222 37.7325 1.79968 37.6959 1.81189L36.7895 1.96753C36.7162 1.98584 36.6155 2.01941 36.4874 2.06824C36.4935 2.1781 36.5057 2.25745 36.524 2.30627C36.9695 3.06921 37.3876 3.70398 37.7783 4.21057L38.6663 5.48315L38.767 5.62964L39.2889 4.98877L40.4241 3.33166C40.6988 2.92273 40.8727 2.61755 40.946 2.41614C40.9704 2.3551 40.9826 2.29712 40.9826 2.24219L40.9551 2.0957C40.8331 2.02856 40.7354 1.98584 40.6622 1.96753C40.6194 1.96143 40.5035 1.95532 40.3143 1.94922C39.9969 1.94312 39.7131 1.9187 39.4628 1.87598C39.4445 1.75391 39.4354 1.66235 39.4354 1.60132C39.4354 1.5708 39.4415 1.49756 39.4537 1.38159C39.4537 1.33887 39.4567 1.26868 39.4628 1.17102C39.53 1.16492 39.591 1.14966 39.6459 1.12524C40.1952 1.16187 41.3305 1.18018 43.0517 1.18018C43.2714 1.18018 43.4667 1.17102 43.6376 1.15271C43.8085 1.1344 43.9123 1.12524 43.9489 1.12524C44.0099 1.12524 44.1015 1.1344 44.2236 1.15271C44.2541 1.27478 44.2693 1.38464 44.2693 1.4823C44.2693 1.54333 44.2663 1.64099 44.2602 1.77527L42.8503 2.07739C42.7343 2.12012 42.6061 2.20557 42.4658 2.33374C42.3254 2.45581 41.947 2.91357 41.3305 3.70703L40.003 5.42822C39.8504 5.63574 39.7222 5.80359 39.6185 5.93176C39.5208 6.05383 39.4323 6.1637 39.353 6.26135L39.4903 6.45361C39.826 6.93579 40.1678 7.42102 40.5157 7.9093L42.3376 10.601C42.8198 11.3151 43.1768 11.7545 43.4087 11.9193C43.5735 12.0353 43.9916 12.1573 44.663 12.2855C44.6813 12.4076 44.6905 12.4869 44.6905 12.5236C44.6905 12.5541 44.6752 12.667 44.6447 12.8623L44.6722 12.9447L44.0222 12.963C43.8818 12.963 43.6071 12.9478 43.1982 12.9172L42.0721 12.844L41.9531 12.8257C41.8249 12.8196 41.7364 12.8165 41.6876 12.8165C41.303 12.8165 40.8483 12.8379 40.3234 12.8806C39.7985 12.9233 39.414 12.9447 39.1699 12.9447C39.0112 12.9447 38.7518 12.9386 38.3917 12.9264V12.6884C38.3917 12.5785 38.3978 12.4656 38.41 12.3496C38.8799 12.2275 39.3713 12.1268 39.884 12.0475C39.9511 12.0048 40.0274 11.962 40.1129 11.9193L40.122 11.8186C40.122 11.7637 40.1129 11.7087 40.0945 11.6538C40.0579 11.5378 39.9725 11.37 39.8382 11.1503C39.5696 10.723 39.2065 10.2073 38.7487 9.60303L37.6592 8.14734C37.5189 8.31213 37.0275 8.98962 36.1852 10.1798C35.9167 10.485 35.6909 10.8146 35.5077 11.1686C35.3857 11.3944 35.3246 11.5378 35.3246 11.5989L35.3338 11.6721L35.4528 11.8369C35.6786 11.9407 35.9594 12.0475 36.2951 12.1573C36.6308 12.2611 36.8475 12.3313 36.9451 12.3679L37.0001 12.7891V12.8348L36.9817 12.9355C36.8047 12.96 36.6857 12.9722 36.6247 12.9722C36.527 12.9722 36.2341 12.9478 35.7458 12.8989C35.581 12.8806 35.285 12.8684 34.8577 12.8623L34.4274 12.8531L32.4041 12.9447C32.3614 12.9447 32.218 12.9416 31.9738 12.9355L31.9372 12.5236C31.9372 12.4686 31.9463 12.3893 31.9647 12.2855C32.0684 12.2733 32.1996 12.2581 32.3583 12.2397C32.8344 12.197 33.2006 12.1116 33.457 11.9834C33.5607 11.9285 33.753 11.7423 34.0337 11.4249C34.4671 10.9489 34.8577 10.4819 35.2056 10.0242C35.407 9.75561 35.5657 9.5542 35.6817 9.41992C36.0052 8.97436 36.4904 8.33655 37.1374 7.50647L36.5972 6.69165C36.2066 6.20947 35.9045 5.80969 35.6909 5.49231L35.1507 4.70496C34.9432 4.36316 34.8058 4.14954 34.7387 4.06409C34.4457 3.68567 34.0978 3.17908 33.695 2.54431C33.5424 2.31238 33.3471 2.14148 33.1091 2.03162C32.871 1.92175 32.4835 1.85156 31.9463 1.82104V1.68372C31.9463 1.61658 31.9433 1.56775 31.9372 1.53723C31.9128 1.42126 31.9006 1.34497 31.9006 1.30835L31.9189 1.08862Z" fill="white"/>
<path d="M47.8692 1.85767L47.8417 1.1344C47.9516 1.1283 48.0645 1.12524 48.1805 1.12524C48.4857 1.12524 48.8061 1.1344 49.1418 1.15271C49.9474 1.19543 50.4205 1.2168 50.5608 1.2168C51.0491 1.2168 51.5252 1.20764 51.9891 1.18933C52.459 1.16492 52.8741 1.14966 53.2342 1.14355C53.6004 1.13745 53.8476 1.13135 53.9758 1.12524L53.9666 1.23511L53.9849 1.77527V1.84851C53.6431 1.89734 53.2891 1.92175 52.9229 1.92175C52.5811 1.92175 52.3553 1.98889 52.2454 2.12317C52.1722 2.20862 52.1356 2.57178 52.1356 3.21265C52.1356 3.40796 52.1386 3.56665 52.1447 3.68872L52.1539 4.01831L52.1356 4.87891L52.1905 5.61133L52.1539 7.19519L52.2729 9.49316C52.3034 10.1584 52.4499 10.7108 52.7123 11.1503C52.9076 11.4738 53.1823 11.727 53.5363 11.9102C54.049 12.1665 54.5525 12.2947 55.0469 12.2947C55.6329 12.2947 56.1791 12.2184 56.6857 12.0658C56.9848 11.9803 57.2656 11.843 57.528 11.6538C57.7966 11.4585 57.9827 11.2815 58.0865 11.1228C58.3062 10.7871 58.4588 10.4728 58.5442 10.1798C58.6602 9.77698 58.7182 9.15137 58.7182 8.30298C58.7182 6.82593 58.6389 5.16272 58.4802 3.31335L58.4435 2.82812C58.4252 2.46802 58.3581 2.22693 58.2421 2.10486C58.0468 1.91565 57.8271 1.82104 57.5829 1.82104L56.7223 1.83936L56.6033 1.81189L56.6216 1.11609H57.3449L59.0936 1.18933C59.6795 1.18933 60.238 1.16187 60.769 1.10693L60.9246 1.12524C60.9612 1.32666 60.9795 1.46704 60.9795 1.54639C60.9795 1.61353 60.9673 1.69592 60.9429 1.79358C60.7171 1.86072 60.4791 1.90039 60.2288 1.9126C59.8199 1.96753 59.5941 2.01331 59.5513 2.04993C59.4659 2.12317 59.4232 2.23608 59.4232 2.38867C59.4232 2.49854 59.4323 2.65723 59.4506 2.86475C59.4689 3.01733 59.4781 3.28284 59.4781 3.66125C59.4781 3.87488 59.4781 4.04272 59.4781 4.16479C59.4842 4.28686 59.4903 4.41199 59.4964 4.54016C59.5147 4.97961 59.53 5.42517 59.5422 5.87683L59.6337 7.73535C59.6337 8.98047 59.591 9.8136 59.5056 10.2347C59.4201 10.6559 59.3041 10.9885 59.1576 11.2327C58.9318 11.5989 58.6114 11.9376 58.1963 12.2489C57.7813 12.5541 57.2625 12.7982 56.6399 12.9813C56.0174 13.1583 55.2911 13.2468 54.461 13.2468C53.5149 13.2468 52.7032 13.1217 52.0257 12.8715C51.3482 12.6151 50.8355 12.2825 50.4876 11.8735C50.1458 11.4585 49.9108 10.9214 49.7826 10.2622C49.6911 9.81055 49.6453 9.16357 49.6453 8.32129L49.6545 3.95422C49.6545 2.92273 49.6056 2.33984 49.508 2.20557C49.3737 2.01636 48.9556 1.90955 48.2537 1.88513C48.1011 1.88513 47.973 1.87598 47.8692 1.85767Z" fill="white"/>
<path d="M65.3576 12.3771C65.5163 12.2916 65.7513 12.2306 66.0626 12.194C66.3738 12.1512 66.6546 12.0841 66.9048 11.9926C66.9354 11.8705 66.9537 11.782 66.9598 11.727C66.972 11.6416 66.9781 11.3486 66.9781 10.8481L66.9689 8.80652L67.0055 7.70789L66.9872 6.85644L67.0055 6.36206C67.0239 5.69678 67.033 5.07422 67.033 4.49438C67.033 3.22485 67.0178 2.41309 66.9872 2.05908L66.4471 1.94922C65.9527 1.9187 65.6231 1.88818 65.4583 1.85767L65.44 1.30835L65.4766 1.20764C65.7818 1.15881 66.0626 1.1344 66.3189 1.1344C66.4593 1.1344 66.7431 1.13135 67.1703 1.12524C67.6098 1.16187 67.8478 1.18018 67.8845 1.18018L68.3697 1.15271L69.5141 1.09778C70.2282 1.02454 70.982 0.987915 71.7754 0.987915C73.0267 0.987915 74.0215 1.30835 74.7601 1.94922C75.4986 2.58398 75.8679 3.31335 75.8679 4.13733C75.8679 4.75378 75.6664 5.31531 75.2636 5.8219C74.8669 6.32239 74.2535 6.70081 73.4234 6.95715C73.4966 7.08533 73.5943 7.23486 73.7164 7.40576C73.9727 7.77197 74.1802 8.08325 74.3389 8.3396L75.8038 10.7108C76.17 11.3395 76.408 11.7087 76.5179 11.8186C76.6338 11.9224 76.8688 12.0383 77.2228 12.1665C77.4975 12.2703 77.7081 12.374 77.8545 12.4778C77.8912 12.5815 77.9095 12.6731 77.9095 12.7524C77.9095 12.8074 77.9064 12.8776 77.9003 12.963H77.6531L77.47 12.9722L76.9939 12.9081H76.6186C76.4233 12.8776 76.1822 12.8623 75.8953 12.8623L74.9798 12.8531C74.9127 12.8531 74.699 12.8745 74.3389 12.9172C74.1741 12.9355 74.0429 12.9508 73.9452 12.963L73.634 12.3588C73.3776 11.901 73.1976 11.5592 73.0938 11.3334C72.8252 10.7413 72.3644 9.79834 71.7114 8.50439C71.4062 7.90625 71.1926 7.5675 71.0705 7.48816C70.8874 7.35998 70.5731 7.2959 70.1275 7.2959C70.0054 7.2959 69.7979 7.302 69.5049 7.31421C69.4866 7.49121 69.4775 7.70178 69.4775 7.94592L69.5141 9.97839L69.4683 11.6996C69.6392 11.8033 69.862 11.8827 70.1367 11.9376C70.6127 12.0353 71.0217 12.1512 71.3635 12.2855C71.3635 12.5846 71.3512 12.8104 71.3268 12.963C71.2109 12.9569 71.1376 12.9539 71.1071 12.9539L70.7317 12.9722C69.4195 12.8562 68.6413 12.7982 68.3971 12.7982C68.2385 12.7982 68.1255 12.8013 68.0584 12.8074L66.795 12.8898C66.4105 12.9325 66.0595 12.9539 65.7421 12.9539H65.3484C65.3362 12.8013 65.3301 12.7036 65.3301 12.6609C65.3301 12.5937 65.3393 12.4991 65.3576 12.3771ZM69.4775 6.45361C69.7704 6.46582 69.9841 6.47192 70.1183 6.47192C71.1559 6.47192 71.8914 6.28577 72.3248 5.91345C72.7581 5.54114 72.9748 5.0437 72.9748 4.42114C72.9748 4.03662 72.9199 3.67651 72.81 3.34082C72.7062 2.99902 72.575 2.74573 72.4163 2.58093C72.1905 2.3429 71.8945 2.16284 71.5283 2.04077C71.2597 1.94922 70.8294 1.90344 70.2374 1.90344C69.9566 1.90344 69.7155 1.9187 69.5141 1.94922L69.5049 2.12317L69.5141 3.35913L69.4958 4.10986L69.5049 5.10779C69.4927 5.38855 69.4836 5.75171 69.4775 6.19727V6.45361Z" fill="white"/>
<path d="M79.4769 1.15271C79.6417 1.10388 80.0231 1.07947 80.6213 1.07947L80.7128 1.09778C80.8654 1.12219 80.9722 1.1344 81.0333 1.1344L81.1248 1.12524C81.2164 1.13745 81.4666 1.15881 81.8755 1.18933C82.6324 1.24426 83.2336 1.27173 83.6791 1.27173C84.1674 1.27173 84.6465 1.23816 85.1165 1.17102C85.1836 1.15881 85.2325 1.15271 85.263 1.15271L85.3362 1.16187C85.3668 1.24121 85.382 1.30225 85.382 1.34497L85.3729 1.82104C85.2325 1.87598 85.0646 1.9187 84.8693 1.94922L84.4573 2.02246C84.3047 2.05298 84.1003 2.08655 83.8439 2.12317L83.789 2.15979L83.7707 2.27881C83.9721 2.71216 84.3993 3.3866 85.0524 4.30212C85.2233 4.59509 85.3942 4.86975 85.5651 5.1261C85.6139 5.19324 85.7879 5.47705 86.087 5.97754C86.1175 6.03247 86.1511 6.0874 86.1877 6.14233C86.2426 6.22778 86.2975 6.31018 86.3525 6.38953C86.4562 6.54211 86.5234 6.64282 86.5539 6.69165C86.676 6.88696 86.7797 7.0365 86.8652 7.14026L87.8173 5.80359C88.1286 5.40076 88.5345 4.81482 89.035 4.04578L89.0716 4L89.8498 2.61755C89.9719 2.44055 90.0329 2.30933 90.0329 2.22388C90.0329 2.19336 90.0237 2.14148 90.0054 2.06824C89.9139 2.0072 89.8376 1.97058 89.7765 1.95837C89.7521 1.94617 89.624 1.93396 89.392 1.92175C89.2638 1.89734 89.1418 1.87598 89.0258 1.85767C88.9098 1.83936 88.8152 1.82104 88.742 1.80273C88.7298 1.72339 88.7115 1.49756 88.6871 1.12524L90.5639 1.22595C90.6188 1.23206 90.6951 1.24426 90.7928 1.26257H91.2322L91.3879 1.25342C91.5832 1.2229 91.8365 1.19849 92.1478 1.18018C92.2393 1.17407 92.3278 1.16492 92.4133 1.15271L92.4041 1.83936L92.2851 1.87598C91.7724 1.96143 91.4214 2.07434 91.2322 2.21472C90.9576 2.42224 90.5883 2.92273 90.1244 3.71619L88.9343 5.50146C88.2201 6.47192 87.7593 7.13415 87.5518 7.48816C87.4969 7.57361 87.4511 7.68042 87.4145 7.80859V8.09241L87.4053 8.88892V9.10864C87.387 9.26733 87.3779 9.43213 87.3779 9.60303L87.4145 11.9468C87.4389 11.9956 87.4725 12.0292 87.5152 12.0475C87.6006 12.0719 87.796 12.1024 88.1011 12.139C88.6871 12.2001 89.0136 12.252 89.0807 12.2947C89.1296 12.3252 89.154 12.3862 89.154 12.4778C89.154 12.5327 89.1479 12.606 89.1357 12.6975C89.1357 12.7524 89.1326 12.8379 89.1265 12.9539L88.0737 12.9355L87.094 12.8531L86.4166 12.8074L85.4003 12.844H84.6404C84.555 12.8379 84.4177 12.8501 84.2284 12.8806C83.9233 12.9294 83.6944 12.9539 83.5418 12.9539L82.9101 12.9447C82.904 12.8165 82.9009 12.7189 82.9009 12.6517C82.9009 12.5846 82.904 12.4839 82.9101 12.3496L84.5947 12.0017C84.6679 11.9773 84.7381 11.9468 84.8052 11.9102C84.8113 11.6294 84.8144 11.4554 84.8144 11.3883C84.8144 10.4545 84.8083 9.8197 84.7961 9.48401C84.7839 9.14221 84.7778 8.94385 84.7778 8.88892V8.67834C84.7778 8.29382 84.5763 7.85132 84.1735 7.35083C84.0026 7.13721 83.8958 6.99683 83.8531 6.92969L82.0586 4.20142L81.2164 2.84644C81.1858 2.79761 80.9966 2.54736 80.6487 2.0957C80.5389 1.99805 80.4321 1.93091 80.3283 1.89429C80.2673 1.86987 79.9896 1.80579 79.4952 1.70203C79.4647 1.64709 79.4494 1.59827 79.4494 1.55554C79.4494 1.51892 79.4524 1.47314 79.4585 1.41821C79.4647 1.35718 79.4708 1.26868 79.4769 1.15271Z" fill="white"/>
</svg>
