<svg width="148" height="36" viewBox="0 0 148 36" fill="none" xmlns="http://www.w3.org/2000/svg">
<path d="M29.1016 35.5738C29.1016 35.464 29.1126 35.334 29.1346 35.1838L29.8212 35.063C29.9055 35.0447 30.0062 35.0154 30.1233 34.9751L30.1948 33.6018C30.1801 33.1074 30.1728 32.7375 30.1728 32.4922L30.1783 32.3603C30.1893 32.2102 30.1948 31.833 30.1948 31.2287L30.1838 31.0694L30.1948 30.608L30.1893 30.1301V29.8939C30.1893 29.6815 30.1728 29.4325 30.1398 29.1468C30.1362 29.1212 30.1215 29.0773 30.0959 29.015C30.0666 29.004 30.0336 28.9967 29.997 28.993C29.964 28.9894 29.9293 28.9839 29.8926 28.9765C29.7498 28.9509 29.5978 28.9326 29.4367 28.9216L29.3543 28.8996C29.2554 28.8887 29.1804 28.874 29.1291 28.8557C29.1181 28.7495 29.1126 28.6817 29.1126 28.6525C29.1126 28.6085 29.1236 28.5481 29.1456 28.4712C29.2188 28.4565 29.3213 28.4492 29.4532 28.4492C29.585 28.4492 29.6766 28.4474 29.7278 28.4437C30.1746 28.4913 30.506 28.517 30.7221 28.5206C30.821 28.5206 30.9199 28.5243 31.0187 28.5316C31.1213 28.5353 31.211 28.5371 31.2879 28.5371C31.4087 28.5371 31.7035 28.5188 32.1723 28.4822C32.2492 28.4639 32.3334 28.4547 32.425 28.4547C32.5605 28.4547 32.674 28.462 32.7656 28.4767C32.7692 28.5536 32.771 28.6085 32.771 28.6415C32.771 28.7001 32.7637 28.7715 32.7491 28.8557L31.7823 29.0095C31.7017 29.0461 31.6614 29.0992 31.6614 29.1688L31.6779 29.3721L31.6834 29.4599L31.6779 29.7016L31.6669 29.8884V29.9324C31.6706 29.9726 31.6724 30.0074 31.6724 30.0367L31.6669 30.7344C31.6706 30.8003 31.6724 30.8497 31.6724 30.8827C31.6724 30.901 31.6688 30.9596 31.6614 31.0585C31.6578 31.1171 31.6559 31.1775 31.6559 31.2397C31.6559 31.2947 31.6614 31.4247 31.6724 31.6297C31.775 31.6481 31.861 31.659 31.9306 31.6627L32.7436 31.6792H33.1391L34.1279 31.6847L35.0892 31.6572C35.2137 31.6572 35.3455 31.6444 35.4847 31.6188C35.492 31.4942 35.4975 31.1885 35.5012 30.7014L35.5121 30.4542L35.4792 29.5204L35.4407 29.1358C35.4297 29.1102 35.4041 29.0864 35.3638 29.0644C35.2356 28.9912 34.9793 28.9088 34.5948 28.8172C34.5252 28.8026 34.4593 28.7843 34.397 28.7623C34.4044 28.6341 34.419 28.5298 34.441 28.4492C34.5215 28.4455 34.571 28.4437 34.5893 28.4437L35.1221 28.4492C35.4627 28.4931 35.8088 28.5151 36.1603 28.5151C36.2409 28.5151 36.305 28.5133 36.3526 28.5096L37.0667 28.4877C37.1326 28.484 37.1967 28.4803 37.259 28.4767C37.3908 28.4474 37.5263 28.4327 37.6655 28.4327C37.7717 28.4327 37.8998 28.4382 38.05 28.4492C38.0463 28.592 38.0372 28.722 38.0225 28.8392C37.6856 28.9088 37.464 28.9601 37.3578 28.993C37.2553 29.0223 37.1509 29.0644 37.0447 29.1194L37.0118 29.2292V29.3226L37.0173 29.4654L37.0118 29.5368C37.0044 29.6138 37.0008 29.6723 37.0008 29.7126V29.85C37.0044 30.0148 37.0063 30.1063 37.0063 30.1246V30.8223L37.0118 31.3496L37.0008 32.0472C36.9971 32.2084 37.0026 32.5379 37.0173 33.036V33.816L37.0283 34.4642C37.0283 34.5851 37.0246 34.7316 37.0173 34.9037C37.0942 34.9256 37.1656 34.944 37.2315 34.9586C37.5757 35.0318 37.8357 35.1069 38.0115 35.1838L38.028 35.5683C37.8815 35.572 37.7955 35.5738 37.7698 35.5738C37.594 35.5738 37.3926 35.5629 37.1656 35.5409C36.8653 35.5079 36.3819 35.4914 35.7154 35.4914C35.4151 35.4914 35.0269 35.5152 34.5508 35.5629C34.4996 35.5629 34.4373 35.5519 34.3641 35.5299C34.3677 35.3614 34.3769 35.2424 34.3915 35.1728L34.8145 35.074L35.2595 35.0025C35.3034 34.9916 35.3602 34.9751 35.4297 34.9531C35.47 34.6565 35.492 34.1639 35.4957 33.4754L35.5012 33.0085C35.4792 32.8144 35.4682 32.5819 35.4682 32.3109C35.3327 32.2999 35.1862 32.2926 35.0287 32.2889L32.4799 32.2615L32.4305 32.256L32.392 32.2505C32.3664 32.2505 32.3371 32.2523 32.3041 32.256C32.2089 32.2596 32.1284 32.2615 32.0624 32.2615H31.9086C31.839 32.2615 31.7603 32.2743 31.6724 32.2999L31.6504 32.7119V32.7833C31.6578 32.8822 31.6614 32.9463 31.6614 32.9756V34.6785C31.6614 34.7737 31.6669 34.8707 31.6779 34.9696L31.7328 35.0025L32.5403 35.1289C32.5806 35.1435 32.6117 35.1527 32.6337 35.1564C32.6813 35.1673 32.7216 35.1838 32.7546 35.2058C32.7656 35.29 32.771 35.3468 32.771 35.3761C32.771 35.4237 32.7637 35.4896 32.7491 35.5738C32.6172 35.5775 32.5055 35.5793 32.414 35.5793C32.3334 35.5793 32.2584 35.5775 32.1888 35.5738C32.1558 35.5738 32.1247 35.572 32.0954 35.5683L31.3209 35.5354C31.1378 35.5171 30.8814 35.5079 30.5518 35.5079L30.4365 35.5134C30.2826 35.5207 30.1929 35.5262 30.1673 35.5299C29.9402 35.5592 29.585 35.5738 29.1016 35.5738Z" fill="#14274A"/>
<path d="M45.7283 31.9483C45.7283 31.4942 45.8162 31.0383 45.992 30.5806C46.1202 30.251 46.2996 29.9488 46.5303 29.6742C46.761 29.3995 47.0503 29.156 47.3982 28.9436C47.7461 28.7275 48.1014 28.5737 48.4639 28.4822C48.8265 28.3869 49.2311 28.3393 49.6779 28.3393C50.4396 28.3393 51.1006 28.4822 51.6609 28.7678C52.2212 29.0535 52.6625 29.4398 52.9848 29.9269C53.4023 30.5604 53.611 31.2251 53.611 31.9209C53.611 32.9573 53.2576 33.8453 52.5508 34.5851C51.8477 35.3248 50.8681 35.6947 49.612 35.6947C49.3007 35.6947 49.0096 35.6745 48.7386 35.6343C48.5335 35.605 48.3541 35.5647 48.2002 35.5134C47.9219 35.4219 47.7663 35.3688 47.7333 35.3541C47.3342 35.1271 47.0137 34.8945 46.772 34.6565C46.5303 34.4184 46.3252 34.1493 46.1568 33.849C46.0652 33.6805 45.9609 33.3766 45.8437 32.9371C45.7668 32.6551 45.7283 32.3255 45.7283 31.9483ZM49.4692 28.8832C49.1506 28.8832 48.8686 28.9582 48.6232 29.1084C48.3779 29.2549 48.1929 29.4178 48.0684 29.5973C47.8597 29.9012 47.7114 30.2345 47.6235 30.597C47.5356 30.9559 47.4916 31.3935 47.4916 31.9099C47.4916 32.2248 47.5044 32.4501 47.5301 32.5856C47.5374 32.6295 47.5484 32.7046 47.563 32.8108C47.596 33.0818 47.6345 33.2795 47.6784 33.404C47.8359 33.8691 47.9476 34.1566 48.0135 34.2665C48.1233 34.4532 48.2863 34.6382 48.5024 34.8213C48.6122 34.9165 48.7715 35.0044 48.9803 35.0849C49.189 35.1618 49.3978 35.2003 49.6065 35.2003C50.002 35.2003 50.3682 35.1087 50.7051 34.9256C51.0457 34.7389 51.3185 34.4239 51.5236 33.9808C51.7287 33.5377 51.8312 32.9609 51.8312 32.2505C51.8312 31.9575 51.8111 31.5602 51.7708 31.0585L51.7433 30.9541C51.7324 30.9248 51.714 30.8497 51.6884 30.7289C51.5529 30.1283 51.2929 29.6705 50.9084 29.3556C50.5275 29.0406 50.0478 28.8832 49.4692 28.8832Z" fill="#14274A"/>
<path d="M61.2619 28.1745H61.6025C61.6281 28.2148 61.6464 28.2441 61.6574 28.2624C61.7599 28.4382 61.8387 28.5536 61.8936 28.6085C61.9412 28.6232 62.1921 28.6305 62.6462 28.6305C62.9282 28.6305 63.179 28.6286 63.3987 28.625L63.5086 28.6085L64.1733 28.603L65.4147 28.614H67.1121L67.4362 28.5646C67.4838 28.5316 67.5351 28.4437 67.59 28.3009C67.6047 28.2679 67.6248 28.2222 67.6504 28.1636L67.8921 28.1581C67.9288 28.1581 67.9837 28.1599 68.0569 28.1636C68.0606 28.4162 68.0624 28.7971 68.0624 29.3061L68.0679 29.795L68.0624 30.0752C68.0624 30.1704 68.0551 30.2528 68.0405 30.3224C67.8903 30.37 67.7585 30.3993 67.645 30.4103C67.5497 30.2674 67.4454 30.0605 67.3318 29.7895C67.222 29.5185 67.1524 29.3684 67.1231 29.3391C67.0792 29.2915 67.0279 29.2604 66.9693 29.2457C66.8814 29.2274 66.4932 29.2182 65.8047 29.2182C65.7022 29.2182 65.574 29.2256 65.4202 29.2402C65.3982 29.383 65.3873 29.5002 65.3873 29.5918L65.3928 30.3279V31.9429L65.4147 33.6842L65.4092 34.3983C65.4092 34.651 65.4312 34.8414 65.4752 34.9696C65.5337 34.9952 65.6418 35.019 65.7992 35.041C65.8285 35.0447 65.964 35.074 66.2057 35.1289C66.3156 35.1545 66.4127 35.1838 66.4969 35.2168C66.5152 35.3486 66.5243 35.4292 66.5243 35.4585C66.5243 35.4914 66.5189 35.539 66.5079 35.6013C66.4273 35.605 66.3614 35.6068 66.3101 35.6068C65.9329 35.6068 65.6125 35.594 65.3488 35.5683C65.0851 35.539 64.6072 35.5244 63.9151 35.5244C63.8052 35.5244 63.483 35.5464 62.9483 35.5903C62.7396 35.605 62.6041 35.6123 62.5418 35.6123C62.5381 35.5574 62.5345 35.5152 62.5308 35.4859L62.5253 35.3596V35.3157C62.6059 35.2095 62.7579 35.1307 62.9813 35.0795C63.3621 34.9879 63.6258 34.9055 63.7723 34.8323C63.8089 34.7627 63.8309 34.6711 63.8382 34.5576C63.8638 34.1181 63.8766 33.4187 63.8766 32.4592L63.8492 30.3828C63.8492 29.8115 63.8382 29.4654 63.8162 29.3446C63.8089 29.3116 63.7961 29.2878 63.7778 29.2732C63.7595 29.2549 63.7338 29.2439 63.7009 29.2402C63.5873 29.2256 63.2175 29.2182 62.5912 29.2182C62.247 29.2182 62.0163 29.2512 61.8991 29.3171C61.7416 29.4087 61.5054 29.6577 61.1905 30.0642C61.0989 30.1814 61.0312 30.24 60.9872 30.24C60.8188 30.1521 60.7107 30.0807 60.6631 30.0257C60.7767 29.7877 60.9341 29.3116 61.1356 28.5975C61.1941 28.3888 61.2363 28.2478 61.2619 28.1745Z" fill="#14274A"/>
<path d="M75.3837 28.4822C75.5925 28.4931 75.7737 28.5096 75.9275 28.5316C76.2169 28.5719 76.5519 28.592 76.9328 28.592C77.0646 28.592 77.4034 28.581 77.949 28.5591C78.7657 28.5261 79.5036 28.5096 80.1628 28.5096L81.157 28.4986C81.3804 28.4986 81.71 28.5261 82.1458 28.581C82.2117 28.6543 82.2447 28.7532 82.2447 28.8777V30.0093L82.2557 30.2345C82.2557 30.2565 82.2538 30.2894 82.2502 30.3334L82.025 30.3443C81.9957 30.3443 81.9334 30.3407 81.8382 30.3334C81.8052 30.2601 81.7613 30.1521 81.7064 30.0093L81.4866 29.6192C81.4024 29.4545 81.2852 29.286 81.1351 29.1139C81.0435 29.0882 80.9263 29.0736 80.7835 29.0699C80.7469 29.0663 80.6352 29.0571 80.4484 29.0425C80.1078 29.0132 79.7416 28.9985 79.3498 28.9985C78.903 28.9985 78.5038 29.0058 78.1523 29.0205C78.1413 29.112 78.1358 29.4728 78.1358 30.1026L78.1468 31.0255V31.7176C78.2383 31.7286 78.3171 31.7341 78.383 31.7341C79.0385 31.7341 79.5054 31.7213 79.7837 31.6957C80.0621 31.67 80.2342 31.6352 80.3001 31.5913C80.366 31.5437 80.4246 31.4631 80.4759 31.3496C80.5088 31.269 80.5729 30.9999 80.6681 30.5421L80.7396 30.5366L81.0582 30.5421C81.0728 30.868 81.0801 31.1152 81.0801 31.2837C81.0801 31.6682 81.0765 31.9154 81.0691 32.0253C81.0655 32.1351 81.0637 32.2212 81.0637 32.2834C81.0637 32.3823 81.0691 32.5416 81.0801 32.7613C81.0911 32.9774 81.0966 33.1385 81.0966 33.2447V33.3656H80.7066C80.6919 33.307 80.6645 33.1861 80.6242 33.003C80.551 32.6625 80.485 32.4501 80.4264 32.3658C80.3825 32.2999 80.3093 32.2505 80.2067 32.2175C80.1335 32.1919 79.8625 32.1791 79.3937 32.1791C78.8408 32.1791 78.4251 32.1937 78.1468 32.223C78.1431 32.3182 78.1413 32.3805 78.1413 32.4098C78.1413 32.8456 78.1486 33.2081 78.1633 33.4974L78.1523 34.6839C78.1523 34.8231 78.2017 34.9183 78.3006 34.9696C78.4507 35.0465 78.9103 35.0849 79.6794 35.0849C80.1884 35.0849 80.6205 35.0465 80.9758 34.9696C81.2211 34.9147 81.4372 34.792 81.624 34.6015C81.873 34.3562 82.0799 34.0119 82.2447 33.5688C82.3582 33.5578 82.4516 33.5524 82.5248 33.5524C82.5651 33.5524 82.6255 33.5542 82.7061 33.5578C82.6951 33.6494 82.686 33.7263 82.6786 33.7886L82.6457 33.9534L82.4424 34.9916L82.3436 35.6178C82.1055 35.6288 81.9169 35.6343 81.7778 35.6343C81.5727 35.6343 81.0252 35.616 80.1353 35.5793C79.5091 35.5537 78.7547 35.5409 77.8721 35.5409C77.4327 35.5409 76.8925 35.5592 76.2516 35.5958H76.0209L75.3563 35.6178V35.2388C75.4258 35.2204 75.565 35.2003 75.7737 35.1783C76.1546 35.1344 76.4183 35.0758 76.5648 35.0025C76.605 34.8963 76.6252 34.7627 76.6252 34.6015C76.6252 34.5393 76.6233 34.4331 76.6197 34.2829L76.6252 34.1127L76.6087 32.0417L76.6142 31.421L76.5867 30.5421L76.5922 29.9214L76.5428 29.2402C76.5428 29.2219 76.5391 29.1853 76.5318 29.1304C76.4952 29.0901 76.4402 29.0644 76.367 29.0535C76.3267 29.0461 76.2718 29.0351 76.2022 29.0205C75.9935 28.9765 75.792 28.9509 75.598 28.9436C75.5284 28.9399 75.4478 28.9326 75.3563 28.9216L75.3837 28.4822Z" fill="#14274A"/>
<path d="M90.1373 35.1399C90.2508 35.1069 90.4101 35.0758 90.6152 35.0465C90.8239 35.0135 90.9466 34.9971 90.9832 34.9971C91.126 34.9934 91.2212 34.9696 91.2689 34.9256C91.2908 34.8378 91.3018 34.7645 91.3018 34.7059L91.2908 34.0028L91.3238 33.2887V32.8327L91.3293 32.2944L91.3183 31.7231L91.3403 30.4982L91.3458 29.9433V29.8664C91.3201 29.4819 91.2945 29.2713 91.2689 29.2347C91.2469 29.1944 91.1425 29.145 90.9557 29.0864C90.9374 29.0791 90.8679 29.0516 90.747 29.004C90.6554 28.9674 90.5731 28.9418 90.4998 28.9271C90.3716 28.8941 90.2819 28.8557 90.2306 28.8118C90.2233 28.7165 90.2197 28.6433 90.2197 28.592C90.2197 28.5627 90.2215 28.5188 90.2252 28.4602C90.2581 28.4419 90.2929 28.4327 90.3295 28.4327C90.4174 28.4327 90.736 28.4474 91.2853 28.4767L92.0709 28.4712L92.6531 28.4822C92.9058 28.4822 93.2299 28.4657 93.6254 28.4327C93.7426 28.4217 93.8104 28.4162 93.8287 28.4162C93.8836 28.4162 93.9221 28.4309 93.944 28.4602C93.9733 28.5005 93.988 28.5737 93.988 28.6799C93.988 28.7641 93.9678 28.8282 93.9275 28.8722C93.9056 28.8978 93.825 28.9198 93.6858 28.9381L93.0047 29.0974C92.9864 29.1047 92.9553 29.1194 92.9113 29.1413C92.8967 29.167 92.8857 29.1889 92.8783 29.2073L92.8729 29.3611L92.8564 29.7071V29.806L92.8619 29.8664C92.8619 29.8848 92.8564 29.9855 92.8454 30.1686C92.8417 30.2162 92.8399 30.2638 92.8399 30.3114C92.8399 30.37 92.8436 30.4689 92.8509 30.608C92.8619 30.8277 92.8674 31.02 92.8674 31.1848C92.8674 31.3752 92.8619 31.5931 92.8509 31.8385C92.8472 31.93 92.8454 32.0491 92.8454 32.1955L92.8234 34.7993C92.8234 34.9092 92.8417 34.9806 92.8783 35.0135L93.4002 35.0355L93.7243 35.03L94.0704 35.041C94.66 35.041 95.1232 34.9733 95.4601 34.8378C95.7128 34.7352 95.8776 34.6327 95.9545 34.5301C96.079 34.4203 96.1797 34.3013 96.2566 34.1731C96.3372 34.0449 96.4269 33.8325 96.5258 33.5359H96.7016C96.7895 33.5359 96.8884 33.5432 96.9982 33.5578V33.7117C96.9982 33.9753 96.9653 34.4368 96.8993 35.0959C96.8737 35.3596 96.8481 35.5207 96.8224 35.5793C96.7382 35.594 96.6851 35.6013 96.6631 35.6013H96.4599L96.1742 35.6068C96.1413 35.6068 95.9234 35.5921 95.5206 35.5629C95.4473 35.5592 95.0976 35.5464 94.4714 35.5244C93.8451 35.5024 93.2317 35.4914 92.6312 35.4914L91.5106 35.5244C91.0784 35.5354 90.6738 35.5555 90.2966 35.5848H90.2142C90.1922 35.5848 90.1574 35.583 90.1098 35.5793C90.1025 35.539 90.0988 35.5043 90.0988 35.475C90.0988 35.3212 90.1116 35.2095 90.1373 35.1399Z" fill="#14274A"/>
<path d="M108.428 28.6415C108.465 28.766 108.498 28.9546 108.527 29.2073C108.571 29.5845 108.593 29.8774 108.593 30.0862C108.593 30.1521 108.586 30.2235 108.571 30.3004L108.516 30.3169L108.121 30.2894L108.055 30.2784C107.894 29.795 107.733 29.4673 107.571 29.2952C107.293 29.0022 106.965 28.8557 106.588 28.8557C106.229 28.8557 105.944 28.9509 105.731 29.1413C105.523 29.3281 105.418 29.5607 105.418 29.839C105.418 30.0733 105.523 30.2986 105.731 30.5146C105.936 30.7307 106.372 30.9376 107.039 31.1354C107.262 31.2013 107.531 31.3075 107.846 31.454C108.165 31.6004 108.406 31.7598 108.571 31.9319C108.791 32.1589 108.941 32.3786 109.022 32.591C109.106 32.7998 109.148 33.0616 109.148 33.3766C109.148 33.7208 109.084 34.0596 108.956 34.3928C108.886 34.5686 108.774 34.7352 108.621 34.8927C108.511 35.0025 108.34 35.1326 108.11 35.2827C107.879 35.4292 107.639 35.5354 107.39 35.6013C107.145 35.6672 106.828 35.7002 106.44 35.7002C106.184 35.7002 105.878 35.6636 105.523 35.5903L104.863 35.3981C104.68 35.3468 104.565 35.301 104.517 35.2607C104.499 35.2461 104.482 35.2113 104.468 35.1564V35.0959C104.468 35.0556 104.459 34.8048 104.44 34.3434C104.433 34.1053 104.429 33.9369 104.429 33.838V33.6293L104.935 33.6183C105.111 34.0248 105.224 34.2701 105.275 34.3544C105.389 34.5411 105.513 34.6931 105.649 34.8103C105.788 34.9238 105.953 35.0154 106.143 35.0849C106.334 35.1509 106.541 35.1838 106.764 35.1838C106.962 35.1838 107.18 35.1417 107.418 35.0575C107.656 34.9733 107.846 34.8359 107.989 34.6455C108.135 34.4514 108.209 34.2445 108.209 34.0248C108.209 33.7538 108.082 33.5029 107.83 33.2722C107.676 33.1294 107.262 32.9389 106.588 32.7009C105.914 32.4629 105.447 32.2505 105.187 32.0637C104.927 31.8769 104.722 31.6279 104.572 31.3166C104.422 31.0017 104.347 30.6996 104.347 30.4103C104.347 29.828 104.556 29.3336 104.973 28.9271C105.391 28.5206 106.006 28.3174 106.819 28.3174C106.995 28.3174 107.255 28.3485 107.599 28.4108C107.808 28.4474 108.084 28.5243 108.428 28.6415Z" fill="#14274A"/>
<path d="M0.173828 18.8248C0.476562 18.7369 0.901367 18.6539 1.44824 18.5758C2.00488 18.4879 2.33203 18.444 2.42969 18.444C2.81055 18.4342 3.06445 18.3707 3.19141 18.2535C3.25 18.0192 3.2793 17.8239 3.2793 17.6676L3.25 15.7926L3.33789 13.8883V12.6725L3.35254 11.2369L3.32324 9.7135L3.38184 6.4469L3.39648 4.96741V4.76233C3.32812 3.73694 3.25977 3.17541 3.19141 3.07776C3.13281 2.97034 2.85449 2.8385 2.35645 2.68225C2.30762 2.66272 2.12207 2.58948 1.7998 2.46252C1.55566 2.36487 1.33594 2.29651 1.14062 2.25745C0.798828 2.16956 0.55957 2.06702 0.422852 1.94983C0.40332 1.69592 0.393555 1.50061 0.393555 1.36389C0.393555 1.28577 0.398437 1.16858 0.408203 1.01233C0.496094 0.963501 0.588867 0.939087 0.686523 0.939087C0.920898 0.939087 1.77051 0.978149 3.23535 1.05627L5.33008 1.04163L6.88281 1.07092C7.55664 1.07092 8.4209 1.02698 9.47558 0.939087C9.78808 0.90979 9.96875 0.895142 10.0176 0.895142C10.1641 0.895142 10.2666 0.934204 10.3252 1.01233C10.4033 1.11975 10.4424 1.31506 10.4424 1.59827C10.4424 1.82288 10.3887 1.99377 10.2812 2.11096C10.2227 2.17932 10.0078 2.23791 9.63672 2.28674L7.82031 2.71155C7.77148 2.73108 7.68848 2.77014 7.57129 2.82874C7.53223 2.89709 7.50293 2.95569 7.4834 3.00452L7.46875 3.41467L7.4248 4.33752V4.6012L7.43945 4.76233C7.43945 4.81116 7.4248 5.07971 7.39551 5.56799C7.38574 5.69495 7.38086 5.8219 7.38086 5.94885C7.38086 6.1051 7.39062 6.36877 7.41016 6.73987C7.43945 7.32581 7.4541 7.8385 7.4541 8.27795C7.4541 8.78577 7.43945 9.36682 7.41016 10.0211C7.40039 10.2653 7.39551 10.5826 7.39551 10.9733L7.33691 17.9166C7.33691 18.2096 7.38574 18.4 7.4834 18.4879L8.875 18.5465L9.73926 18.5319L10.6621 18.5612C12.2344 18.5612 13.4697 18.3805 14.3682 18.0192C15.042 17.7457 15.4814 17.4723 15.6865 17.1989C16.0186 16.9059 16.2871 16.5885 16.4922 16.2467C16.707 15.9049 16.9463 15.3385 17.21 14.5475H17.6787C17.9131 14.5475 18.1768 14.567 18.4697 14.6061V15.0162C18.4697 15.7194 18.3818 16.9498 18.2061 18.7076C18.1377 19.4108 18.0693 19.8405 18.001 19.9967C17.7764 20.0358 17.6348 20.0553 17.5762 20.0553H17.0342L16.2725 20.0699C16.1846 20.0699 15.6035 20.0309 14.5293 19.9528C14.334 19.943 13.4014 19.9088 11.7314 19.8502C10.0615 19.7916 8.42578 19.7623 6.82422 19.7623L3.83594 19.8502C2.68359 19.8795 1.60449 19.9332 0.598633 20.0114H0.378906C0.320312 20.0114 0.227539 20.0065 0.100586 19.9967C0.0810547 19.8893 0.0712891 19.7965 0.0712891 19.7184C0.0712891 19.3082 0.105469 19.0104 0.173828 18.8248Z" fill="#14274A"/>
<path d="M23.6436 2.30139L23.5996 1.14417C23.7754 1.1344 23.9561 1.12952 24.1416 1.12952C24.6299 1.12952 25.1426 1.14417 25.6797 1.17346C26.9687 1.24182 27.7256 1.276 27.9502 1.276C28.7314 1.276 29.4932 1.26135 30.2353 1.23206C30.9873 1.19299 31.6514 1.16858 32.2275 1.15881C32.8135 1.14905 33.209 1.13928 33.4141 1.12952L33.3994 1.3053L33.4287 2.16956V2.28674C32.8818 2.36487 32.3154 2.40393 31.7295 2.40393C31.1826 2.40393 30.8213 2.51135 30.6455 2.7262C30.5283 2.86291 30.4697 3.44397 30.4697 4.46936C30.4697 4.78186 30.4746 5.03577 30.4844 5.23108L30.499 5.75842L30.4697 7.13538L30.5576 8.30725L30.499 10.8414L30.6895 14.5182C30.7383 15.5826 30.9727 16.4664 31.3926 17.1696C31.7051 17.6871 32.1445 18.0924 32.7109 18.3854C33.5312 18.7955 34.3369 19.0006 35.1279 19.0006C36.0654 19.0006 36.9394 18.8785 37.75 18.6344C38.2285 18.4977 38.6777 18.278 39.0977 17.9752C39.5273 17.6627 39.8252 17.3795 39.9912 17.1256C40.3428 16.5885 40.5869 16.0856 40.7236 15.6168C40.9092 14.9723 41.0019 13.9713 41.0019 12.6139C41.0019 10.2506 40.875 7.58948 40.6211 4.63049L40.5625 3.85413C40.5332 3.27795 40.4258 2.89221 40.2402 2.6969C39.9277 2.39416 39.5762 2.2428 39.1855 2.2428L37.8086 2.27209L37.6182 2.22815L37.6475 1.11487H38.8047L41.6025 1.23206C42.54 1.23206 43.4336 1.18811 44.2832 1.10022L44.5322 1.12952C44.5908 1.45178 44.6201 1.67639 44.6201 1.80334C44.6201 1.91077 44.6006 2.0426 44.5615 2.19885C44.2002 2.30627 43.8193 2.36975 43.4189 2.38928C42.7646 2.47717 42.4033 2.55041 42.335 2.60901C42.1982 2.7262 42.1299 2.90686 42.1299 3.151C42.1299 3.32678 42.1445 3.58069 42.1738 3.91272C42.2031 4.15686 42.2178 4.58166 42.2178 5.18713C42.2178 5.52893 42.2178 5.79748 42.2178 5.9928C42.2275 6.18811 42.2373 6.38831 42.2471 6.59338C42.2764 7.29651 42.3008 8.0094 42.3203 8.73206L42.4668 11.7057C42.4668 13.6979 42.3984 15.0309 42.2617 15.7047C42.125 16.3785 41.9394 16.9108 41.7051 17.3014C41.3437 17.8873 40.8311 18.4293 40.167 18.9274C39.5029 19.4156 38.6728 19.8063 37.6768 20.0992C36.6807 20.3824 35.5186 20.524 34.1904 20.524C32.6768 20.524 31.3779 20.3239 30.2939 19.9235C29.21 19.5133 28.3896 18.9811 27.833 18.3268C27.2861 17.6627 26.9102 16.8033 26.7051 15.7487C26.5586 15.026 26.4853 13.9908 26.4853 12.6432L26.5 5.65588C26.5 4.00549 26.4219 3.07288 26.2656 2.85803C26.0508 2.5553 25.3818 2.3844 24.2588 2.34534C24.0146 2.34534 23.8096 2.33069 23.6436 2.30139Z" fill="#14274A"/>
<path d="M50.5703 1.07092C50.9219 1.06116 51.2051 1.05627 51.4199 1.05627C51.6543 1.05627 51.8447 1.06116 51.9912 1.07092L52.7822 1.12952L53.1484 1.11487C53.1973 1.11487 53.373 1.13928 53.6758 1.18811C54.2227 1.276 55.0088 1.31995 56.0342 1.31995C57.3037 1.31995 58.5049 1.24182 59.6377 1.08557C59.7939 1.09534 59.9648 1.10999 60.1504 1.12952C60.1309 1.45178 60.1211 1.77405 60.1211 2.09631C59.9746 2.16467 59.8721 2.20862 59.8135 2.22815L58.3633 2.47717C58.2461 2.50647 58.085 2.56018 57.8799 2.63831C57.8896 2.81409 57.9092 2.94104 57.9385 3.01916C58.6514 4.23987 59.3203 5.25549 59.9453 6.06604L61.3662 8.10217L61.5273 8.33655L62.3623 7.31116L64.1787 4.65979C64.6182 4.00549 64.8965 3.51721 65.0137 3.19495C65.0527 3.09729 65.0723 3.00452 65.0723 2.91663L65.0283 2.68225C64.833 2.57483 64.6768 2.50647 64.5596 2.47717C64.4912 2.46741 64.3057 2.45764 64.0029 2.44788C63.4951 2.43811 63.041 2.39905 62.6406 2.33069C62.6113 2.13538 62.5967 1.98889 62.5967 1.89124C62.5967 1.84241 62.6064 1.72522 62.626 1.53967C62.626 1.47131 62.6309 1.35901 62.6406 1.20276C62.748 1.19299 62.8457 1.16858 62.9336 1.12952C63.8125 1.18811 65.6289 1.21741 68.3828 1.21741C68.7344 1.21741 69.0469 1.20276 69.3203 1.17346C69.5937 1.14417 69.7598 1.12952 69.8184 1.12952C69.916 1.12952 70.0625 1.14417 70.2578 1.17346C70.3066 1.36877 70.331 1.54456 70.331 1.70081C70.331 1.79846 70.3262 1.95471 70.3164 2.16956L68.0605 2.65295C67.875 2.72131 67.6699 2.85803 67.4453 3.06311C67.2207 3.25842 66.6152 3.99084 65.6289 5.26038L63.5049 8.01428C63.2607 8.34631 63.0557 8.61487 62.8896 8.81995C62.7334 9.01526 62.5918 9.19104 62.4648 9.34729L62.6846 9.65491C63.2217 10.4264 63.7685 11.2028 64.3252 11.984L67.2402 16.2906C68.0117 17.4332 68.583 18.1364 68.9541 18.4C69.2178 18.5856 69.8867 18.7809 70.9609 18.986C70.9902 19.1813 71.0049 19.3082 71.0049 19.3668C71.0049 19.4156 70.9805 19.5963 70.9316 19.9088L70.9756 20.0406L69.9355 20.0699C69.7109 20.0699 69.2715 20.0455 68.6172 19.9967L66.8154 19.8795L66.625 19.8502C66.4199 19.8405 66.2783 19.8356 66.2002 19.8356C65.585 19.8356 64.8574 19.8697 64.0176 19.9381C63.1777 20.0065 62.5625 20.0406 62.1719 20.0406C61.918 20.0406 61.5029 20.0309 60.9268 20.0114V19.6305C60.9268 19.4547 60.9365 19.274 60.9561 19.0885C61.708 18.8932 62.4941 18.7321 63.3144 18.6051C63.4219 18.5367 63.5439 18.4684 63.6807 18.4L63.6953 18.2389C63.6953 18.151 63.6807 18.0631 63.6514 17.9752C63.5928 17.7897 63.4561 17.5211 63.2412 17.1696C62.8115 16.486 62.2305 15.6608 61.498 14.694L59.7549 12.3649C59.5303 12.6285 58.7441 13.7125 57.3965 15.6168C56.9668 16.1051 56.6055 16.6324 56.3125 17.1989C56.1172 17.5602 56.0195 17.7897 56.0195 17.8873L56.0342 18.0045L56.2246 18.2682C56.5859 18.4342 57.0352 18.6051 57.5723 18.7809C58.1094 18.9469 58.4561 19.0592 58.6123 19.1178L58.7002 19.7916V19.8649L58.6709 20.026C58.3877 20.0651 58.1973 20.0846 58.0996 20.0846C57.9434 20.0846 57.4746 20.0455 56.6934 19.9674C56.4297 19.9381 55.9561 19.9186 55.2725 19.9088L54.584 19.8942L51.3467 20.0406C51.2783 20.0406 51.0488 20.0358 50.6582 20.026L50.5996 19.3668C50.5996 19.2789 50.6143 19.152 50.6436 18.986C50.8096 18.9664 51.0195 18.942 51.2734 18.9127C52.0352 18.8444 52.6211 18.7076 53.0312 18.5026C53.1973 18.4147 53.5049 18.1168 53.9541 17.609C54.6475 16.8473 55.2725 16.1002 55.8291 15.3678C56.1514 14.9381 56.4053 14.6158 56.5908 14.401C57.1084 13.6881 57.8848 12.6676 58.9199 11.3395L58.0557 10.0358C57.4307 9.26428 56.9473 8.62463 56.6055 8.11682L55.7412 6.85706C55.4092 6.31018 55.1894 5.96838 55.082 5.83166C54.6133 5.2262 54.0566 4.41565 53.4121 3.40002C53.168 3.02893 52.8555 2.75549 52.4746 2.57971C52.0937 2.40393 51.4736 2.29163 50.6143 2.2428V2.02307C50.6143 1.91565 50.6094 1.83752 50.5996 1.7887C50.5605 1.60315 50.541 1.48108 50.541 1.42249L50.5703 1.07092Z" fill="#14274A"/>
<path d="M76.0908 2.30139L76.0469 1.14417C76.2226 1.1344 76.4033 1.12952 76.5889 1.12952C77.0771 1.12952 77.5898 1.14417 78.1269 1.17346C79.416 1.24182 80.1728 1.276 80.3975 1.276C81.1787 1.276 81.9404 1.26135 82.6826 1.23206C83.4346 1.19299 84.0986 1.16858 84.6748 1.15881C85.2607 1.14905 85.6562 1.13928 85.8613 1.12952L85.8467 1.3053L85.876 2.16956V2.28674C85.3291 2.36487 84.7627 2.40393 84.1768 2.40393C83.6299 2.40393 83.2685 2.51135 83.0928 2.7262C82.9756 2.86291 82.917 3.44397 82.917 4.46936C82.917 4.78186 82.9219 5.03577 82.9316 5.23108L82.9463 5.75842L82.917 7.13538L83.0049 8.30725L82.9463 10.8414L83.1367 14.5182C83.1855 15.5826 83.4199 16.4664 83.8398 17.1696C84.1523 17.6871 84.5918 18.0924 85.1582 18.3854C85.9785 18.7955 86.7842 19.0006 87.5752 19.0006C88.5127 19.0006 89.3867 18.8785 90.1973 18.6344C90.6758 18.4977 91.125 18.278 91.5449 17.9752C91.9746 17.6627 92.2725 17.3795 92.4385 17.1256C92.79 16.5885 93.0342 16.0856 93.1709 15.6168C93.3564 14.9723 93.4492 13.9713 93.4492 12.6139C93.4492 10.2506 93.3223 7.58948 93.0684 4.63049L93.0098 3.85413C92.9805 3.27795 92.873 2.89221 92.6875 2.6969C92.375 2.39416 92.0234 2.2428 91.6328 2.2428L90.2559 2.27209L90.0654 2.22815L90.0947 1.11487H91.2519L94.0498 1.23206C94.9873 1.23206 95.8809 1.18811 96.7305 1.10022L96.9795 1.12952C97.0381 1.45178 97.0674 1.67639 97.0674 1.80334C97.0674 1.91077 97.0478 2.0426 97.0088 2.19885C96.6475 2.30627 96.2666 2.36975 95.8662 2.38928C95.2119 2.47717 94.8506 2.55041 94.7822 2.60901C94.6455 2.7262 94.5771 2.90686 94.5771 3.151C94.5771 3.32678 94.5918 3.58069 94.6211 3.91272C94.6504 4.15686 94.665 4.58166 94.665 5.18713C94.665 5.52893 94.665 5.79748 94.665 5.9928C94.6748 6.18811 94.6846 6.38831 94.6943 6.59338C94.7236 7.29651 94.748 8.0094 94.7676 8.73206L94.9141 11.7057C94.9141 13.6979 94.8457 15.0309 94.709 15.7047C94.5723 16.3785 94.3867 16.9108 94.1523 17.3014C93.791 17.8873 93.2783 18.4293 92.6143 18.9274C91.9502 19.4156 91.1201 19.8063 90.124 20.0992C89.1279 20.3824 87.9658 20.524 86.6377 20.524C85.124 20.524 83.8252 20.3239 82.7412 19.9235C81.6572 19.5133 80.8369 18.9811 80.2803 18.3268C79.7334 17.6627 79.3574 16.8033 79.1523 15.7487C79.0059 15.026 78.9326 13.9908 78.9326 12.6432L78.9473 5.65588C78.9473 4.00549 78.8691 3.07288 78.7129 2.85803C78.498 2.5553 77.8291 2.3844 76.706 2.34534C76.4619 2.34534 76.2568 2.33069 76.0908 2.30139Z" fill="#14274A"/>
<path d="M104.072 19.1324C104.326 18.9957 104.702 18.8981 105.2 18.8395C105.698 18.7711 106.147 18.6637 106.548 18.5172C106.597 18.3219 106.626 18.1803 106.636 18.0924C106.655 17.9557 106.665 17.4869 106.665 16.6862L106.65 13.4196L106.709 11.6617L106.68 10.2994L106.709 9.50842C106.738 8.44397 106.753 7.44788 106.753 6.52014C106.753 4.48889 106.729 3.19006 106.68 2.62366L105.815 2.44788C105.024 2.39905 104.497 2.35022 104.233 2.30139L104.204 1.42249L104.263 1.26135C104.751 1.18323 105.2 1.14417 105.61 1.14417C105.835 1.14417 106.289 1.13928 106.973 1.12952C107.676 1.18811 108.057 1.21741 108.115 1.21741L108.892 1.17346L110.723 1.08557C111.865 0.968384 113.071 0.90979 114.341 0.90979C116.343 0.90979 117.935 1.42249 119.116 2.44788C120.298 3.4635 120.889 4.63049 120.889 5.94885C120.889 6.93518 120.566 7.83362 119.922 8.64416C119.287 9.44495 118.306 10.0504 116.978 10.4606C117.095 10.6656 117.251 10.9049 117.446 11.1783C117.856 11.7643 118.188 12.2623 118.442 12.6725L120.786 16.4664C121.372 17.4723 121.753 18.0631 121.929 18.2389C122.114 18.4049 122.49 18.5905 123.057 18.7955C123.496 18.9615 123.833 19.1276 124.067 19.2936C124.126 19.4596 124.155 19.6061 124.155 19.733C124.155 19.8209 124.15 19.9332 124.141 20.0699H123.745L123.452 20.0846L122.69 19.9821H122.09C121.777 19.9332 121.392 19.9088 120.933 19.9088L119.468 19.8942C119.36 19.8942 119.019 19.9283 118.442 19.9967C118.179 20.026 117.969 20.0504 117.812 20.0699L117.314 19.1031C116.904 18.3707 116.616 17.8239 116.45 17.4625C116.021 16.5153 115.283 15.0065 114.238 12.9362C113.75 11.9791 113.408 11.4371 113.213 11.3102C112.92 11.1051 112.417 11.0026 111.704 11.0026C111.509 11.0026 111.177 11.0123 110.708 11.0319C110.679 11.3151 110.664 11.652 110.664 12.0426L110.723 15.2946L110.649 18.0485C110.923 18.2145 111.279 18.3414 111.719 18.4293C112.48 18.5856 113.135 18.7711 113.682 18.986C113.682 19.4645 113.662 19.8258 113.623 20.0699C113.437 20.0602 113.32 20.0553 113.271 20.0553L112.671 20.0846C110.571 19.899 109.326 19.8063 108.936 19.8063C108.682 19.8063 108.501 19.8112 108.394 19.8209L106.372 19.9528C105.757 20.0211 105.195 20.0553 104.687 20.0553H104.058C104.038 19.8112 104.028 19.6549 104.028 19.5865C104.028 19.4791 104.043 19.3278 104.072 19.1324ZM110.664 9.65491C111.133 9.67444 111.475 9.6842 111.689 9.6842C113.35 9.6842 114.526 9.38635 115.22 8.79065C115.913 8.19495 116.26 7.39905 116.26 6.40295C116.26 5.78772 116.172 5.21155 115.996 4.67444C115.83 4.12756 115.62 3.72229 115.366 3.45862C115.005 3.07776 114.531 2.78967 113.945 2.59436C113.516 2.44788 112.827 2.37463 111.88 2.37463C111.431 2.37463 111.045 2.39905 110.723 2.44788L110.708 2.7262L110.723 4.70374L110.693 5.90491L110.708 7.50159C110.688 7.95081 110.674 8.53186 110.664 9.24475V9.65491Z" fill="#14274A"/>
<path d="M126.663 1.17346C126.927 1.09534 127.537 1.05627 128.494 1.05627L128.641 1.08557C128.885 1.12463 129.056 1.14417 129.153 1.14417L129.3 1.12952C129.446 1.14905 129.847 1.18323 130.501 1.23206C131.712 1.31995 132.674 1.36389 133.387 1.36389C134.168 1.36389 134.935 1.31018 135.687 1.20276C135.794 1.18323 135.872 1.17346 135.921 1.17346L136.038 1.18811C136.087 1.31506 136.111 1.41272 136.111 1.48108L136.097 2.2428C135.872 2.33069 135.604 2.39905 135.291 2.44788L134.632 2.56506C134.388 2.61389 134.061 2.6676 133.65 2.7262L133.562 2.78479L133.533 2.97522C133.855 3.66858 134.539 4.74768 135.584 6.21252C135.857 6.68127 136.131 7.12073 136.404 7.53088C136.482 7.63831 136.761 8.09241 137.239 8.89319C137.288 8.98108 137.342 9.06897 137.4 9.15686C137.488 9.29358 137.576 9.42541 137.664 9.55237C137.83 9.79651 137.937 9.95764 137.986 10.0358C138.182 10.3483 138.348 10.5875 138.484 10.7535L140.008 8.61487C140.506 7.97034 141.155 7.03284 141.956 5.80237L142.015 5.72913L143.26 3.51721C143.455 3.23401 143.553 3.02405 143.553 2.88733C143.553 2.8385 143.538 2.75549 143.509 2.63831C143.362 2.54065 143.24 2.48206 143.143 2.46252C143.104 2.44299 142.898 2.42346 142.527 2.40393C142.322 2.36487 142.127 2.33069 141.941 2.30139C141.756 2.27209 141.604 2.2428 141.487 2.2135C141.468 2.08655 141.438 1.72522 141.399 1.12952L144.402 1.29065C144.49 1.30042 144.612 1.31995 144.769 1.34924H145.472L145.721 1.33459C146.033 1.28577 146.438 1.2467 146.937 1.21741C147.083 1.20764 147.225 1.19299 147.361 1.17346L147.347 2.27209L147.156 2.33069C146.336 2.46741 145.774 2.64807 145.472 2.87268C145.032 3.20471 144.441 4.00549 143.699 5.27502L141.795 8.13147C140.652 9.6842 139.915 10.7438 139.583 11.3102C139.495 11.4469 139.422 11.6178 139.363 11.8229V12.277L139.349 13.5514V13.903C139.319 14.1569 139.305 14.4205 139.305 14.694L139.363 18.444C139.402 18.5221 139.456 18.5758 139.524 18.6051C139.661 18.6442 139.974 18.693 140.462 18.7516C141.399 18.8492 141.922 18.9322 142.029 19.0006C142.107 19.0494 142.146 19.1471 142.146 19.2936C142.146 19.3815 142.137 19.4987 142.117 19.6451C142.117 19.733 142.112 19.8697 142.103 20.0553L140.418 20.026L138.851 19.8942L137.767 19.8209L136.141 19.8795H134.925C134.788 19.8697 134.568 19.8893 134.266 19.9381C133.777 20.0162 133.411 20.0553 133.167 20.0553L132.156 20.0406C132.146 19.8356 132.142 19.6793 132.142 19.5719C132.142 19.4645 132.146 19.3033 132.156 19.0885L134.852 18.5319C134.969 18.4928 135.081 18.444 135.188 18.3854C135.198 17.9362 135.203 17.6578 135.203 17.5504C135.203 16.0563 135.193 15.0406 135.174 14.5035C135.154 13.9567 135.145 13.6393 135.145 13.5514V13.2145C135.145 12.5992 134.822 11.8912 134.178 11.0905C133.904 10.7487 133.733 10.524 133.665 10.4166L130.794 6.05139L129.446 3.88342C129.397 3.8053 129.095 3.40491 128.538 2.68225C128.362 2.526 128.191 2.41858 128.025 2.35999C127.928 2.32092 127.483 2.21838 126.692 2.05237C126.644 1.96448 126.619 1.88635 126.619 1.81799C126.619 1.7594 126.624 1.68616 126.634 1.59827C126.644 1.50061 126.653 1.35901 126.663 1.17346Z" fill="#14274A"/>
</svg>
